solid OpenSCAD_Model
  facet normal 0 0 -1
    outer loop
      vertex -11 0 0
      vertex -10.7596 2.28703 0
      vertex -10.7596 -2.28703 0
    endloop
  endfacet
  facet normal 0 0 -1
    outer loop
      vertex -10.7596 -2.28703 0
      vertex -10.7596 2.28703 0
      vertex -10.049 4.4741 0
    endloop
  endfacet
  facet normal 0 0 -1
    outer loop
      vertex -10.7596 -2.28703 0
      vertex -10.049 4.4741 0
      vertex -8.89919 6.46564 0
    endloop
  endfacet
  facet normal 0 0 -1
    outer loop
      vertex -10.7596 -2.28703 0
      vertex -8.89919 6.46564 0
      vertex -7.36044 8.17459 0
    endloop
  endfacet
  facet normal 0 0 -1
    outer loop
      vertex -9.48764 0.588999 0
      vertex -7.36044 8.17459 0
      vertex -5.5 9.52628 0
    endloop
  endfacet
  facet normal 0 0 -1
    outer loop
      vertex -9.01988 1.23282 0
      vertex -5.5 9.52628 0
      vertex -3.39919 10.4616 0
    endloop
  endfacet
  facet normal 0 0 -1
    outer loop
      vertex -8.29981 1.57166 0
      vertex -3.39919 10.4616 0
      vertex -1.14981 10.9397 0
    endloop
  endfacet
  facet normal 0 0 -1
    outer loop
      vertex -7.89953 1.59684 0
      vertex -1.14981 10.9397 0
      vertex 1.14981 10.9397 0
    endloop
  endfacet
  facet normal 0 0 -1
    outer loop
      vertex -7.14268 1.35092 0
      vertex 1.14981 10.9397 0
      vertex 3.39919 10.4616 0
    endloop
  endfacet
  facet normal 0 0 -1
    outer loop
      vertex -6.59791 0.770806 0
      vertex 3.39919 10.4616 0
      vertex 5.5 9.52628 0
    endloop
  endfacet
  facet normal 0 0 -1
    outer loop
      vertex -0.257441 4.09191 0
      vertex 5.5 9.52628 0
      vertex 7.36044 8.17459 0
    endloop
  endfacet
  facet normal 0 0 -1
    outer loop
      vertex 1.74569 3.70979 0
      vertex 7.36044 8.17459 0
      vertex 8.89919 6.46564 0
    endloop
  endfacet
  facet normal 0 0 -1
    outer loop
      vertex 3.31697 2.40992 0
      vertex 8.89919 6.46564 0
      vertex 10.049 4.4741 0
    endloop
  endfacet
  facet normal 0 0 -1
    outer loop
      vertex 3.97119 1.01963 0
      vertex 10.049 4.4741 0
      vertex 10.7596 2.28703 0
    endloop
  endfacet
  facet normal 0 0 -1
    outer loop
      vertex 9.54973 0.397904 0
      vertex 10.7596 2.28703 0
      vertex 11 0 0
    endloop
  endfacet
  facet normal 0 0 -1
    outer loop
      vertex 8.85732 -1.35092 0
      vertex 11 0 0
      vertex 10.7596 -2.28703 0
    endloop
  endfacet
  facet normal 0 0 -1
    outer loop
      vertex 2.61344 -3.1591 0
      vertex 10.7596 -2.28703 0
      vertex 10.049 -4.4741 0
    endloop
  endfacet
  facet normal 0 0 -1
    outer loop
      vertex 0.768263 -4.02738 0
      vertex 10.049 -4.4741 0
      vertex 8.89919 -6.46564 0
    endloop
  endfacet
  facet normal 0 0 -1
    outer loop
      vertex -10.7596 -2.28703 0
      vertex 8.89919 -6.46564 0
      vertex 7.36044 -8.17459 0
    endloop
  endfacet
  facet normal 0 0 -1
    outer loop
      vertex -10.7596 -2.28703 0
      vertex 7.36044 -8.17459 0
      vertex 5.5 -9.52628 0
    endloop
  endfacet
  facet normal 0 0 -1
    outer loop
      vertex -10.7596 -2.28703 0
      vertex 5.5 -9.52628 0
      vertex 3.39919 -10.4616 0
    endloop
  endfacet
  facet normal 0 0 -1
    outer loop
      vertex -10.7596 -2.28703 0
      vertex 3.39919 -10.4616 0
      vertex 1.14981 -10.9397 0
    endloop
  endfacet
  facet normal 0 0 -1
    outer loop
      vertex -10.7596 -2.28703 0
      vertex 1.14981 -10.9397 0
      vertex -1.14981 -10.9397 0
    endloop
  endfacet
  facet normal 0 0 -1
    outer loop
      vertex -10.7596 -2.28703 0
      vertex -1.14981 -10.9397 0
      vertex -3.39919 -10.4616 0
    endloop
  endfacet
  facet normal 0 0 -1
    outer loop
      vertex -10.7596 -2.28703 0
      vertex -3.39919 -10.4616 0
      vertex -5.5 -9.52628 0
    endloop
  endfacet
  facet normal 0 0 -1
    outer loop
      vertex -10.7596 -2.28703 0
      vertex -5.5 -9.52628 0
      vertex -7.36044 -8.17459 0
    endloop
  endfacet
  facet normal 0 0 -1
    outer loop
      vertex -10.7596 -2.28703 0
      vertex -7.36044 -8.17459 0
      vertex -8.89919 -6.46564 0
    endloop
  endfacet
  facet normal 0 0 -1
    outer loop
      vertex -10.7596 -2.28703 0
      vertex -8.89919 -6.46564 0
      vertex -10.049 -4.4741 0
    endloop
  endfacet
  facet normal 0 0 -1
    outer loop
      vertex -4.1 0 0
      vertex -6.59791 -0.770806 0
      vertex -4.06767 0.513866 0
    endloop
  endfacet
  facet normal 0 0 -1
    outer loop
      vertex -10.7596 -2.28703 0
      vertex -9.58738 0.200533 0
      vertex -9.58738 -0.200533 0
    endloop
  endfacet
  facet normal 0 0 -1
    outer loop
      vertex -7.14268 1.35092 0
      vertex 3.39919 10.4616 0
      vertex -6.83365 1.09527 0
    endloop
  endfacet
  facet normal 0 0 -1
    outer loop
      vertex -9.29443 -0.940456 0
      vertex -10.7596 -2.28703 0
      vertex -9.48764 -0.588999 0
    endloop
  endfacet
  facet normal 0 0 -1
    outer loop
      vertex -9.01988 -1.23282 0
      vertex -10.7596 -2.28703 0
      vertex -9.29443 -0.940456 0
    endloop
  endfacet
  facet normal 0 0 -1
    outer loop
      vertex -8.68125 -1.44772 0
      vertex -10.7596 -2.28703 0
      vertex -9.01988 -1.23282 0
    endloop
  endfacet
  facet normal 0 0 -1
    outer loop
      vertex -6.4 0 0
      vertex -3.97119 1.01963 0
      vertex -6.45027 -0.397904 0
    endloop
  endfacet
  facet normal 0 0 -1
    outer loop
      vertex 6.41262 -0.200533 0
      vertex 4.1 0 0
      vertex 6.41262 0.200533 0
    endloop
  endfacet
  facet normal 0 0 -1
    outer loop
      vertex -3.97119 -1.01963 0
      vertex -7.50557 -1.52169 0
      vertex -7.14268 -1.35092 0
    endloop
  endfacet
  facet normal 0 0 -1
    outer loop
      vertex -10.7596 -2.28703 0
      vertex -8.29981 -1.57166 0
      vertex -7.89953 -1.59684 0
    endloop
  endfacet
  facet normal 0 0 -1
    outer loop
      vertex -10.7596 -2.28703 0
      vertex -7.89953 -1.59684 0
      vertex -7.50557 -1.52169 0
    endloop
  endfacet
  facet normal 0 0 -1
    outer loop
      vertex 4.1 0 0
      vertex 6.41262 -0.200533 0
      vertex 4.06767 -0.513866 0
    endloop
  endfacet
  facet normal 0 0 -1
    outer loop
      vertex 2.19689 3.46174 0
      vertex 8.89919 6.46564 0
      vertex 2.61344 3.1591 0
    endloop
  endfacet
  facet normal 0 0 -1
    outer loop
      vertex -4.06767 -0.513866 0
      vertex -6.83365 -1.09527 0
      vertex -4.1 0 0
    endloop
  endfacet
  facet normal 0 0 -1
    outer loop
      vertex 1.74569 3.70979 0
      vertex 8.89919 6.46564 0
      vertex 2.19689 3.46174 0
    endloop
  endfacet
  facet normal 0 0 -1
    outer loop
      vertex -8.29981 -1.57166 0
      vertex -10.7596 -2.28703 0
      vertex -8.68125 -1.44772 0
    endloop
  endfacet
  facet normal 0 0 -1
    outer loop
      vertex -3.97119 1.01963 0
      vertex -6.4 0 0
      vertex -3.81208 1.50931 0
    endloop
  endfacet
  facet normal 0 0 -1
    outer loop
      vertex -6.83365 1.09527 0
      vertex 3.39919 10.4616 0
      vertex -6.59791 0.770806 0
    endloop
  endfacet
  facet normal 0 0 -1
    outer loop
      vertex -0.257441 4.09191 0
      vertex 7.36044 8.17459 0
      vertex 0.257441 4.09191 0
    endloop
  endfacet
  facet normal 0 0 -1
    outer loop
      vertex -7.50557 1.52169 0
      vertex 1.14981 10.9397 0
      vertex -7.14268 1.35092 0
    endloop
  endfacet
  facet normal 0 0 -1
    outer loop
      vertex -8.29981 1.57166 0
      vertex -1.14981 10.9397 0
      vertex -7.89953 1.59684 0
    endloop
  endfacet
  facet normal 0 0 -1
    outer loop
      vertex -7.89953 1.59684 0
      vertex 1.14981 10.9397 0
      vertex -7.50557 1.52169 0
    endloop
  endfacet
  facet normal 0 0 -1
    outer loop
      vertex -9.01988 1.23282 0
      vertex -3.39919 10.4616 0
      vertex -8.68125 1.44772 0
    endloop
  endfacet
  facet normal 0 0 -1
    outer loop
      vertex -9.29443 0.940456 0
      vertex -5.5 9.52628 0
      vertex -9.01988 1.23282 0
    endloop
  endfacet
  facet normal 0 0 -1
    outer loop
      vertex -9.48764 -0.588999 0
      vertex -10.7596 -2.28703 0
      vertex -9.58738 -0.200533 0
    endloop
  endfacet
  facet normal 0 0 -1
    outer loop
      vertex -10.7596 -2.28703 0
      vertex -7.36044 8.17459 0
      vertex -9.48764 0.588999 0
    endloop
  endfacet
  facet normal 0 0 -1
    outer loop
      vertex -8.68125 1.44772 0
      vertex -3.39919 10.4616 0
      vertex -8.29981 1.57166 0
    endloop
  endfacet
  facet normal 0 0 -1
    outer loop
      vertex -6.59791 -0.770806 0
      vertex -4.1 0 0
      vertex -6.83365 -1.09527 0
    endloop
  endfacet
  facet normal 0 0 -1
    outer loop
      vertex -3.97119 -1.01963 0
      vertex -10.7596 -2.28703 0
      vertex -7.50557 -1.52169 0
    endloop
  endfacet
  facet normal 0 0 -1
    outer loop
      vertex -3.59286 -1.97519 0
      vertex -10.7596 -2.28703 0
      vertex -3.81208 -1.50931 0
    endloop
  endfacet
  facet normal 0 0 -1
    outer loop
      vertex -10.7596 -2.28703 0
      vertex -3.97119 -1.01963 0
      vertex -3.81208 -1.50931 0
    endloop
  endfacet
  facet normal 0 0 -1
    outer loop
      vertex 3.97119 1.01963 0
      vertex 7.31875 1.44772 0
      vertex 4.06767 0.513866 0
    endloop
  endfacet
  facet normal 0 0 -1
    outer loop
      vertex -2.61344 -3.1591 0
      vertex -10.7596 -2.28703 0
      vertex -2.98877 -2.80664 0
    endloop
  endfacet
  facet normal 0 0 -1
    outer loop
      vertex -10.7596 -2.28703 0
      vertex -3.31697 -2.40992 0
      vertex -2.98877 -2.80664 0
    endloop
  endfacet
  facet normal 0 0 -1
    outer loop
      vertex -0.257441 -4.09191 0
      vertex 8.89919 -6.46564 0
      vertex -0.768263 -4.02738 0
    endloop
  endfacet
  facet normal 0 0 -1
    outer loop
      vertex -10.7596 -2.28703 0
      vertex -2.61344 -3.1591 0
      vertex -2.19689 -3.46174 0
    endloop
  endfacet
  facet normal 0 0 -1
    outer loop
      vertex -10.7596 -2.28703 0
      vertex -2.19689 -3.46174 0
      vertex -1.74569 -3.70979 0
    endloop
  endfacet
  facet normal 0 0 -1
    outer loop
      vertex -10.7596 -2.28703 0
      vertex -1.74569 -3.70979 0
      vertex -1.26697 -3.89933 0
    endloop
  endfacet
  facet normal 0 0 -1
    outer loop
      vertex -10.7596 -2.28703 0
      vertex -1.26697 -3.89933 0
      vertex -0.768263 -4.02738 0
    endloop
  endfacet
  facet normal 0 0 -1
    outer loop
      vertex -10.7596 -2.28703 0
      vertex -0.768263 -4.02738 0
      vertex 8.89919 -6.46564 0
    endloop
  endfacet
  facet normal 0 0 -1
    outer loop
      vertex 0.257441 -4.09191 0
      vertex 8.89919 -6.46564 0
      vertex -0.257441 -4.09191 0
    endloop
  endfacet
  facet normal 0 0 -1
    outer loop
      vertex 0.768263 -4.02738 0
      vertex 8.89919 -6.46564 0
      vertex 0.257441 -4.09191 0
    endloop
  endfacet
  facet normal 0 0 -1
    outer loop
      vertex 1.26697 -3.89933 0
      vertex 10.049 -4.4741 0
      vertex 0.768263 -4.02738 0
    endloop
  endfacet
  facet normal 0 0 -1
    outer loop
      vertex 2.19689 -3.46174 0
      vertex 10.049 -4.4741 0
      vertex 1.74569 -3.70979 0
    endloop
  endfacet
  facet normal 0 0 -1
    outer loop
      vertex 1.74569 -3.70979 0
      vertex 10.049 -4.4741 0
      vertex 1.26697 -3.89933 0
    endloop
  endfacet
  facet normal 0 0 -1
    outer loop
      vertex 2.61344 -3.1591 0
      vertex 10.049 -4.4741 0
      vertex 2.19689 -3.46174 0
    endloop
  endfacet
  facet normal 0 0 -1
    outer loop
      vertex 2.98877 -2.80664 0
      vertex 10.7596 -2.28703 0
      vertex 2.61344 -3.1591 0
    endloop
  endfacet
  facet normal 0 0 -1
    outer loop
      vertex 3.59286 -1.97519 0
      vertex 10.7596 -2.28703 0
      vertex 3.31697 -2.40992 0
    endloop
  endfacet
  facet normal 0 0 -1
    outer loop
      vertex 3.31697 -2.40992 0
      vertex 10.7596 -2.28703 0
      vertex 2.98877 -2.80664 0
    endloop
  endfacet
  facet normal 0 0 -1
    outer loop
      vertex 4.06767 -0.513866 0
      vertex 6.51236 -0.588999 0
      vertex 3.97119 -1.01963 0
    endloop
  endfacet
  facet normal 0 0 -1
    outer loop
      vertex 6.70557 -0.940456 0
      vertex 3.81208 -1.50931 0
      vertex 3.97119 -1.01963 0
    endloop
  endfacet
  facet normal 0 0 -1
    outer loop
      vertex 6.70557 -0.940456 0
      vertex 3.97119 -1.01963 0
      vertex 6.51236 -0.588999 0
    endloop
  endfacet
  facet normal 0 0 -1
    outer loop
      vertex 8.10046 1.59684 0
      vertex 10.7596 2.28703 0
      vertex 8.49443 1.52169 0
    endloop
  endfacet
  facet normal 0 0 -1
    outer loop
      vertex 6.98012 1.23282 0
      vertex 4.06767 0.513866 0
      vertex 7.31875 1.44772 0
    endloop
  endfacet
  facet normal 0 0 -1
    outer loop
      vertex 3.81208 1.50931 0
      vertex 10.049 4.4741 0
      vertex 3.97119 1.01963 0
    endloop
  endfacet
  facet normal 0 0 -1
    outer loop
      vertex 3.31697 2.40992 0
      vertex 10.049 4.4741 0
      vertex 3.59286 1.97519 0
    endloop
  endfacet
  facet normal 0 0 -1
    outer loop
      vertex 3.59286 1.97519 0
      vertex 10.049 4.4741 0
      vertex 3.81208 1.50931 0
    endloop
  endfacet
  facet normal 0 0 -1
    outer loop
      vertex -4.06767 0.513866 0
      vertex -6.45027 -0.397904 0
      vertex -3.97119 1.01963 0
    endloop
  endfacet
  facet normal 0 0 -1
    outer loop
      vertex 2.98877 2.80664 0
      vertex 8.89919 6.46564 0
      vertex 3.31697 2.40992 0
    endloop
  endfacet
  facet normal 0 0 -1
    outer loop
      vertex 2.61344 3.1591 0
      vertex 8.89919 6.46564 0
      vertex 2.98877 2.80664 0
    endloop
  endfacet
  facet normal 0 0 -1
    outer loop
      vertex -3.97119 -1.01963 0
      vertex -7.14268 -1.35092 0
      vertex -6.83365 -1.09527 0
    endloop
  endfacet
  facet normal 0 0 -1
    outer loop
      vertex -3.97119 -1.01963 0
      vertex -6.83365 -1.09527 0
      vertex -4.06767 -0.513866 0
    endloop
  endfacet
  facet normal 0 0 -1
    outer loop
      vertex 1.26697 3.89933 0
      vertex 7.36044 8.17459 0
      vertex 1.74569 3.70979 0
    endloop
  endfacet
  facet normal 0 0 -1
    outer loop
      vertex 0.257441 4.09191 0
      vertex 7.36044 8.17459 0
      vertex 0.768263 4.02738 0
    endloop
  endfacet
  facet normal 0 0 -1
    outer loop
      vertex 0.768263 4.02738 0
      vertex 7.36044 8.17459 0
      vertex 1.26697 3.89933 0
    endloop
  endfacet
  facet normal 0 0 -1
    outer loop
      vertex -0.768263 4.02738 0
      vertex 5.5 9.52628 0
      vertex -0.257441 4.09191 0
    endloop
  endfacet
  facet normal 0 0 -1
    outer loop
      vertex -2.98877 2.80664 0
      vertex -6.45027 0.397904 0
      vertex -2.61344 3.1591 0
    endloop
  endfacet
  facet normal 0 0 -1
    outer loop
      vertex -1.26697 3.89933 0
      vertex 5.5 9.52628 0
      vertex -0.768263 4.02738 0
    endloop
  endfacet
  facet normal 0 0 -1
    outer loop
      vertex -3.81208 1.50931 0
      vertex -6.45027 0.397904 0
      vertex -3.59286 1.97519 0
    endloop
  endfacet
  facet normal 0 0 -1
    outer loop
      vertex -1.74569 3.70979 0
      vertex 5.5 9.52628 0
      vertex -1.26697 3.89933 0
    endloop
  endfacet
  facet normal 0 0 -1
    outer loop
      vertex -2.19689 3.46174 0
      vertex 5.5 9.52628 0
      vertex -1.74569 3.70979 0
    endloop
  endfacet
  facet normal 0 0 -1
    outer loop
      vertex -6.45027 0.397904 0
      vertex 5.5 9.52628 0
      vertex -2.19689 3.46174 0
    endloop
  endfacet
  facet normal 0 0 -1
    outer loop
      vertex -6.45027 0.397904 0
      vertex -2.19689 3.46174 0
      vertex -2.61344 3.1591 0
    endloop
  endfacet
  facet normal 0 0 -1
    outer loop
      vertex -3.31697 2.40992 0
      vertex -6.45027 0.397904 0
      vertex -2.98877 2.80664 0
    endloop
  endfacet
  facet normal 0 0 -1
    outer loop
      vertex -3.59286 1.97519 0
      vertex -6.45027 0.397904 0
      vertex -3.31697 2.40992 0
    endloop
  endfacet
  facet normal 0 0 -1
    outer loop
      vertex -6.59791 0.770806 0
      vertex 5.5 9.52628 0
      vertex -6.45027 0.397904 0
    endloop
  endfacet
  facet normal 0 0 -1
    outer loop
      vertex -3.81208 1.50931 0
      vertex -6.4 0 0
      vertex -6.45027 0.397904 0
    endloop
  endfacet
  facet normal 0 0 -1
    outer loop
      vertex -6.45027 -0.397904 0
      vertex -4.06767 0.513866 0
      vertex -6.59791 -0.770806 0
    endloop
  endfacet
  facet normal 0 0 -1
    outer loop
      vertex 3.97119 1.01963 0
      vertex 10.7596 2.28703 0
      vertex 7.70019 1.57166 0
    endloop
  endfacet
  facet normal 0 0 -1
    outer loop
      vertex 3.97119 1.01963 0
      vertex 7.70019 1.57166 0
      vertex 7.31875 1.44772 0
    endloop
  endfacet
  facet normal 0 0 -1
    outer loop
      vertex -3.31697 -2.40992 0
      vertex -10.7596 -2.28703 0
      vertex -3.59286 -1.97519 0
    endloop
  endfacet
  facet normal 0 0 -1
    outer loop
      vertex 6.98012 -1.23282 0
      vertex 3.59286 -1.97519 0
      vertex 6.70557 -0.940456 0
    endloop
  endfacet
  facet normal 0 0 -1
    outer loop
      vertex 3.81208 -1.50931 0
      vertex 6.70557 -0.940456 0
      vertex 3.59286 -1.97519 0
    endloop
  endfacet
  facet normal 0 0 -1
    outer loop
      vertex 9.6 0 0
      vertex 11 0 0
      vertex 9.54973 -0.397904 0
    endloop
  endfacet
  facet normal 0 0 -1
    outer loop
      vertex 3.59286 -1.97519 0
      vertex 6.98012 -1.23282 0
      vertex 7.31875 -1.44772 0
    endloop
  endfacet
  facet normal 0 0 -1
    outer loop
      vertex 3.59286 -1.97519 0
      vertex 7.31875 -1.44772 0
      vertex 7.70019 -1.57166 0
    endloop
  endfacet
  facet normal 0 0 -1
    outer loop
      vertex 3.59286 -1.97519 0
      vertex 7.70019 -1.57166 0
      vertex 10.7596 -2.28703 0
    endloop
  endfacet
  facet normal 0 0 -1
    outer loop
      vertex 8.49443 -1.52169 0
      vertex 10.7596 -2.28703 0
      vertex 8.10046 -1.59684 0
    endloop
  endfacet
  facet normal 0 0 -1
    outer loop
      vertex 9.54973 -0.397904 0
      vertex 11 0 0
      vertex 9.40209 -0.770806 0
    endloop
  endfacet
  facet normal 0 0 -1
    outer loop
      vertex 9.16635 -1.09527 0
      vertex 11 0 0
      vertex 8.85732 -1.35092 0
    endloop
  endfacet
  facet normal 0 0 -1
    outer loop
      vertex 8.49443 -1.52169 0
      vertex 8.85732 -1.35092 0
      vertex 10.7596 -2.28703 0
    endloop
  endfacet
  facet normal 0 0 -1
    outer loop
      vertex 9.40209 -0.770806 0
      vertex 11 0 0
      vertex 9.16635 -1.09527 0
    endloop
  endfacet
  facet normal 0 0 -1
    outer loop
      vertex 8.10046 -1.59684 0
      vertex 10.7596 -2.28703 0
      vertex 7.70019 -1.57166 0
    endloop
  endfacet
  facet normal 0 0 -1
    outer loop
      vertex 6.51236 -0.588999 0
      vertex 4.06767 -0.513866 0
      vertex 6.41262 -0.200533 0
    endloop
  endfacet
  facet normal 0 0 -1
    outer loop
      vertex 9.54973 0.397904 0
      vertex 11 0 0
      vertex 9.6 0 0
    endloop
  endfacet
  facet normal 0 0 -1
    outer loop
      vertex 9.40209 0.770806 0
      vertex 10.7596 2.28703 0
      vertex 9.54973 0.397904 0
    endloop
  endfacet
  facet normal 0 0 -1
    outer loop
      vertex 8.49443 1.52169 0
      vertex 10.7596 2.28703 0
      vertex 8.85732 1.35092 0
    endloop
  endfacet
  facet normal 0 0 -1
    outer loop
      vertex 9.16635 1.09527 0
      vertex 10.7596 2.28703 0
      vertex 9.40209 0.770806 0
    endloop
  endfacet
  facet normal 0 0 -1
    outer loop
      vertex 8.85732 1.35092 0
      vertex 10.7596 2.28703 0
      vertex 9.16635 1.09527 0
    endloop
  endfacet
  facet normal 0 0 -1
    outer loop
      vertex 7.70019 1.57166 0
      vertex 10.7596 2.28703 0
      vertex 8.10046 1.59684 0
    endloop
  endfacet
  facet normal 0 0 -1
    outer loop
      vertex 6.51236 0.588999 0
      vertex 4.1 0 0
      vertex 6.70557 0.940456 0
    endloop
  endfacet
  facet normal 0 0 -1
    outer loop
      vertex 4.06767 0.513866 0
      vertex 6.70557 0.940456 0
      vertex 4.1 0 0
    endloop
  endfacet
  facet normal 0 0 -1
    outer loop
      vertex 6.70557 0.940456 0
      vertex 4.06767 0.513866 0
      vertex 6.98012 1.23282 0
    endloop
  endfacet
  facet normal 0 0 -1
    outer loop
      vertex 4.1 0 0
      vertex 6.51236 0.588999 0
      vertex 6.41262 0.200533 0
    endloop
  endfacet
  facet normal 0 0 -1
    outer loop
      vertex -9.58738 0.200533 0
      vertex -10.7596 -2.28703 0
      vertex -9.48764 0.588999 0
    endloop
  endfacet
  facet normal 0 0 -1
    outer loop
      vertex -9.48764 0.588999 0
      vertex -5.5 9.52628 0
      vertex -9.29443 0.940456 0
    endloop
  endfacet
  facet normal -0.994522 0.104528 0
    outer loop
      vertex -11 0 0
      vertex -11 0 2
      vertex -10.7596 2.28703 0
    endloop
  endfacet
  facet normal -0.994522 0.104528 0
    outer loop
      vertex -10.7596 2.28703 0
      vertex -11 0 2
      vertex -10.7596 2.28703 2
    endloop
  endfacet
  facet normal -0.994522 -0.104528 0
    outer loop
      vertex -11 0 0
      vertex -10.7596 -2.28703 0
      vertex -11 0 2
    endloop
  endfacet
  facet normal -0.994522 -0.104528 0
    outer loop
      vertex -11 0 2
      vertex -10.7596 -2.28703 0
      vertex -10.7596 -2.28703 2
    endloop
  endfacet
  facet normal -0.951056 -0.309017 0
    outer loop
      vertex -10.7596 -2.28703 0
      vertex -10.049 -4.4741 0
      vertex -10.7596 -2.28703 2
    endloop
  endfacet
  facet normal -0.951056 -0.309017 0
    outer loop
      vertex -10.7596 -2.28703 2
      vertex -10.049 -4.4741 0
      vertex -10.049 -4.4741 2
    endloop
  endfacet
  facet normal -0.866025 -0.5 0
    outer loop
      vertex -10.049 -4.4741 0
      vertex -8.89919 -6.46564 0
      vertex -10.049 -4.4741 2
    endloop
  endfacet
  facet normal -0.866025 -0.5 0
    outer loop
      vertex -10.049 -4.4741 2
      vertex -8.89919 -6.46564 0
      vertex -8.89919 -6.46564 2
    endloop
  endfacet
  facet normal -0.743145 -0.669131 0
    outer loop
      vertex -8.89919 -6.46564 0
      vertex -7.36044 -8.17459 0
      vertex -8.89919 -6.46564 2
    endloop
  endfacet
  facet normal -0.743145 -0.669131 0
    outer loop
      vertex -8.89919 -6.46564 2
      vertex -7.36044 -8.17459 0
      vertex -7.36044 -8.17459 2
    endloop
  endfacet
  facet normal -0.587785 -0.809017 0
    outer loop
      vertex -7.36044 -8.17459 2
      vertex -7.36044 -8.17459 0
      vertex -5.5 -9.52628 0
    endloop
  endfacet
  facet normal -0.587785 -0.809017 0
    outer loop
      vertex -5.5 -9.52628 2
      vertex -7.36044 -8.17459 2
      vertex -5.5 -9.52628 0
    endloop
  endfacet
  facet normal -0.406737 -0.913545 0
    outer loop
      vertex -5.5 -9.52628 2
      vertex -5.5 -9.52628 0
      vertex -3.39919 -10.4616 0
    endloop
  endfacet
  facet normal -0.406737 -0.913545 0
    outer loop
      vertex -3.39919 -10.4616 2
      vertex -5.5 -9.52628 2
      vertex -3.39919 -10.4616 0
    endloop
  endfacet
  facet normal -0.207912 -0.978148 0
    outer loop
      vertex -3.39919 -10.4616 2
      vertex -3.39919 -10.4616 0
      vertex -1.14981 -10.9397 0
    endloop
  endfacet
  facet normal -0.207912 -0.978148 0
    outer loop
      vertex -1.14981 -10.9397 2
      vertex -3.39919 -10.4616 2
      vertex -1.14981 -10.9397 0
    endloop
  endfacet
  facet normal 0 -1 0
    outer loop
      vertex -1.14981 -10.9397 2
      vertex -1.14981 -10.9397 0
      vertex 1.14981 -10.9397 0
    endloop
  endfacet
  facet normal 0 -1 0
    outer loop
      vertex 1.14981 -10.9397 2
      vertex -1.14981 -10.9397 2
      vertex 1.14981 -10.9397 0
    endloop
  endfacet
  facet normal 0.207912 -0.978148 0
    outer loop
      vertex 1.14981 -10.9397 2
      vertex 1.14981 -10.9397 0
      vertex 3.39919 -10.4616 0
    endloop
  endfacet
  facet normal 0.207912 -0.978148 0
    outer loop
      vertex 3.39919 -10.4616 2
      vertex 1.14981 -10.9397 2
      vertex 3.39919 -10.4616 0
    endloop
  endfacet
  facet normal 0.406737 -0.913545 0
    outer loop
      vertex 3.39919 -10.4616 2
      vertex 3.39919 -10.4616 0
      vertex 5.5 -9.52628 0
    endloop
  endfacet
  facet normal 0.406737 -0.913545 0
    outer loop
      vertex 5.5 -9.52628 2
      vertex 3.39919 -10.4616 2
      vertex 5.5 -9.52628 0
    endloop
  endfacet
  facet normal 0.587785 -0.809017 0
    outer loop
      vertex 5.5 -9.52628 2
      vertex 5.5 -9.52628 0
      vertex 7.36044 -8.17459 0
    endloop
  endfacet
  facet normal 0.587785 -0.809017 0
    outer loop
      vertex 7.36044 -8.17459 2
      vertex 5.5 -9.52628 2
      vertex 7.36044 -8.17459 0
    endloop
  endfacet
  facet normal 0.743145 -0.669131 0
    outer loop
      vertex 7.36044 -8.17459 2
      vertex 7.36044 -8.17459 0
      vertex 8.89919 -6.46564 0
    endloop
  endfacet
  facet normal 0.743145 -0.669131 0
    outer loop
      vertex 8.89919 -6.46564 2
      vertex 7.36044 -8.17459 2
      vertex 8.89919 -6.46564 0
    endloop
  endfacet
  facet normal 0.866025 -0.5 0
    outer loop
      vertex 8.89919 -6.46564 2
      vertex 8.89919 -6.46564 0
      vertex 10.049 -4.4741 0
    endloop
  endfacet
  facet normal 0.866025 -0.5 0
    outer loop
      vertex 10.049 -4.4741 2
      vertex 8.89919 -6.46564 2
      vertex 10.049 -4.4741 0
    endloop
  endfacet
  facet normal 0.951056 -0.309017 0
    outer loop
      vertex 10.049 -4.4741 2
      vertex 10.049 -4.4741 0
      vertex 10.7596 -2.28703 0
    endloop
  endfacet
  facet normal 0.951056 -0.309017 0
    outer loop
      vertex 10.7596 -2.28703 2
      vertex 10.049 -4.4741 2
      vertex 10.7596 -2.28703 0
    endloop
  endfacet
  facet normal 0.994522 -0.104528 0
    outer loop
      vertex 10.7596 -2.28703 2
      vertex 10.7596 -2.28703 0
      vertex 11 0 0
    endloop
  endfacet
  facet normal 0.994522 -0.104528 0
    outer loop
      vertex 11 0 2
      vertex 10.7596 -2.28703 2
      vertex 11 0 0
    endloop
  endfacet
  facet normal 0.994522 0.104528 0
    outer loop
      vertex 11 0 0
      vertex 10.7596 2.28703 0
      vertex 10.7596 2.28703 2
    endloop
  endfacet
  facet normal 0.994522 0.104528 0
    outer loop
      vertex 11 0 2
      vertex 11 0 0
      vertex 10.7596 2.28703 2
    endloop
  endfacet
  facet normal 0.951056 0.309017 0
    outer loop
      vertex 10.7596 2.28703 0
      vertex 10.049 4.4741 0
      vertex 10.049 4.4741 2
    endloop
  endfacet
  facet normal 0.951056 0.309017 0
    outer loop
      vertex 10.7596 2.28703 2
      vertex 10.7596 2.28703 0
      vertex 10.049 4.4741 2
    endloop
  endfacet
  facet normal 0.866025 0.5 0
    outer loop
      vertex 10.049 4.4741 0
      vertex 8.89919 6.46564 0
      vertex 8.89919 6.46564 2
    endloop
  endfacet
  facet normal 0.866025 0.5 0
    outer loop
      vertex 10.049 4.4741 2
      vertex 10.049 4.4741 0
      vertex 8.89919 6.46564 2
    endloop
  endfacet
  facet normal 0.743145 0.669131 0
    outer loop
      vertex 8.89919 6.46564 0
      vertex 7.36044 8.17459 0
      vertex 7.36044 8.17459 2
    endloop
  endfacet
  facet normal 0.743145 0.669131 0
    outer loop
      vertex 8.89919 6.46564 2
      vertex 8.89919 6.46564 0
      vertex 7.36044 8.17459 2
    endloop
  endfacet
  facet normal 0.587785 0.809017 0
    outer loop
      vertex 5.5 9.52628 0
      vertex 5.5 9.52628 2
      vertex 7.36044 8.17459 0
    endloop
  endfacet
  facet normal 0.587785 0.809017 0
    outer loop
      vertex 7.36044 8.17459 0
      vertex 5.5 9.52628 2
      vertex 7.36044 8.17459 2
    endloop
  endfacet
  facet normal 0.406737 0.913545 0
    outer loop
      vertex 3.39919 10.4616 0
      vertex 3.39919 10.4616 2
      vertex 5.5 9.52628 0
    endloop
  endfacet
  facet normal 0.406737 0.913545 0
    outer loop
      vertex 5.5 9.52628 0
      vertex 3.39919 10.4616 2
      vertex 5.5 9.52628 2
    endloop
  endfacet
  facet normal 0.207912 0.978148 0
    outer loop
      vertex 1.14981 10.9397 0
      vertex 1.14981 10.9397 2
      vertex 3.39919 10.4616 0
    endloop
  endfacet
  facet normal 0.207912 0.978148 0
    outer loop
      vertex 3.39919 10.4616 0
      vertex 1.14981 10.9397 2
      vertex 3.39919 10.4616 2
    endloop
  endfacet
  facet normal 0 1 0
    outer loop
      vertex -1.14981 10.9397 0
      vertex -1.14981 10.9397 2
      vertex 1.14981 10.9397 0
    endloop
  endfacet
  facet normal 0 1 0
    outer loop
      vertex 1.14981 10.9397 0
      vertex -1.14981 10.9397 2
      vertex 1.14981 10.9397 2
    endloop
  endfacet
  facet normal -0.207912 0.978148 0
    outer loop
      vertex -3.39919 10.4616 0
      vertex -3.39919 10.4616 2
      vertex -1.14981 10.9397 0
    endloop
  endfacet
  facet normal -0.207912 0.978148 0
    outer loop
      vertex -1.14981 10.9397 0
      vertex -3.39919 10.4616 2
      vertex -1.14981 10.9397 2
    endloop
  endfacet
  facet normal -0.406737 0.913545 0
    outer loop
      vertex -5.5 9.52628 0
      vertex -5.5 9.52628 2
      vertex -3.39919 10.4616 0
    endloop
  endfacet
  facet normal -0.406737 0.913545 0
    outer loop
      vertex -3.39919 10.4616 0
      vertex -5.5 9.52628 2
      vertex -3.39919 10.4616 2
    endloop
  endfacet
  facet normal -0.587785 0.809017 0
    outer loop
      vertex -7.36044 8.17459 0
      vertex -7.36044 8.17459 2
      vertex -5.5 9.52628 0
    endloop
  endfacet
  facet normal -0.587785 0.809017 0
    outer loop
      vertex -5.5 9.52628 0
      vertex -7.36044 8.17459 2
      vertex -5.5 9.52628 2
    endloop
  endfacet
  facet normal -0.743145 0.669131 0
    outer loop
      vertex -8.89919 6.46564 0
      vertex -8.89919 6.46564 2
      vertex -7.36044 8.17459 0
    endloop
  endfacet
  facet normal -0.743145 0.669131 0
    outer loop
      vertex -7.36044 8.17459 0
      vertex -8.89919 6.46564 2
      vertex -7.36044 8.17459 2
    endloop
  endfacet
  facet normal -0.866025 0.5 0
    outer loop
      vertex -10.049 4.4741 0
      vertex -10.049 4.4741 2
      vertex -8.89919 6.46564 0
    endloop
  endfacet
  facet normal -0.866025 0.5 0
    outer loop
      vertex -8.89919 6.46564 0
      vertex -10.049 4.4741 2
      vertex -8.89919 6.46564 2
    endloop
  endfacet
  facet normal -0.951056 0.309017 0
    outer loop
      vertex -10.7596 2.28703 0
      vertex -10.7596 2.28703 2
      vertex -10.049 4.4741 0
    endloop
  endfacet
  facet normal -0.951056 0.309017 0
    outer loop
      vertex -10.049 4.4741 0
      vertex -10.7596 2.28703 2
      vertex -10.049 4.4741 2
    endloop
  endfacet
  facet normal 1 0 0
    outer loop
      vertex -9.58738 0.200533 0
      vertex -9.58738 0.200533 2
      vertex -9.58738 -0.200533 2
    endloop
  endfacet
  facet normal 1 0 0
    outer loop
      vertex -9.58738 -0.200533 0
      vertex -9.58738 0.200533 0
      vertex -9.58738 -0.200533 2
    endloop
  endfacet
  facet normal 0.968583 -0.248692 0
    outer loop
      vertex -9.48764 0.588999 0
      vertex -9.48764 0.588999 2
      vertex -9.58738 0.200533 2
    endloop
  endfacet
  facet normal 0.968583 -0.248692 0
    outer loop
      vertex -9.58738 0.200533 0
      vertex -9.48764 0.588999 0
      vertex -9.58738 0.200533 2
    endloop
  endfacet
  facet normal 0.876307 -0.481753 0
    outer loop
      vertex -9.29443 0.940456 0
      vertex -9.29443 0.940456 2
      vertex -9.48764 0.588999 2
    endloop
  endfacet
  facet normal 0.876307 -0.481753 0
    outer loop
      vertex -9.48764 0.588999 0
      vertex -9.29443 0.940456 0
      vertex -9.48764 0.588999 2
    endloop
  endfacet
  facet normal 0.728969 -0.684547 0
    outer loop
      vertex -9.01988 1.23282 0
      vertex -9.01988 1.23282 2
      vertex -9.29443 0.940456 2
    endloop
  endfacet
  facet normal 0.728969 -0.684547 0
    outer loop
      vertex -9.29443 0.940456 0
      vertex -9.01988 1.23282 0
      vertex -9.29443 0.940456 2
    endloop
  endfacet
  facet normal 0.535827 -0.844328 0
    outer loop
      vertex -8.68125 1.44772 0
      vertex -8.68125 1.44772 2
      vertex -9.01988 1.23282 2
    endloop
  endfacet
  facet normal 0.535827 -0.844328 0
    outer loop
      vertex -9.01988 1.23282 0
      vertex -8.68125 1.44772 0
      vertex -9.01988 1.23282 2
    endloop
  endfacet
  facet normal 0.309018 -0.951056 0
    outer loop
      vertex -8.29981 1.57166 0
      vertex -8.29981 1.57166 2
      vertex -8.68125 1.44772 2
    endloop
  endfacet
  facet normal 0.309018 -0.951056 0
    outer loop
      vertex -8.68125 1.44772 0
      vertex -8.29981 1.57166 0
      vertex -8.68125 1.44772 2
    endloop
  endfacet
  facet normal 0.0627901 -0.998027 0
    outer loop
      vertex -7.89953 1.59684 0
      vertex -7.89953 1.59684 2
      vertex -8.29981 1.57166 2
    endloop
  endfacet
  facet normal 0.0627901 -0.998027 0
    outer loop
      vertex -8.29981 1.57166 0
      vertex -7.89953 1.59684 0
      vertex -8.29981 1.57166 2
    endloop
  endfacet
  facet normal -0.187383 -0.982287 0
    outer loop
      vertex -7.50557 1.52169 0
      vertex -7.50557 1.52169 2
      vertex -7.89953 1.59684 2
    endloop
  endfacet
  facet normal -0.187383 -0.982287 0
    outer loop
      vertex -7.89953 1.59684 0
      vertex -7.50557 1.52169 0
      vertex -7.89953 1.59684 2
    endloop
  endfacet
  facet normal -0.425777 -0.904828 0
    outer loop
      vertex -7.14268 1.35092 0
      vertex -7.14268 1.35092 2
      vertex -7.50557 1.52169 2
    endloop
  endfacet
  facet normal -0.425777 -0.904828 0
    outer loop
      vertex -7.50557 1.52169 0
      vertex -7.14268 1.35092 0
      vertex -7.50557 1.52169 2
    endloop
  endfacet
  facet normal -0.637425 -0.770512 0
    outer loop
      vertex -6.83365 1.09527 0
      vertex -6.83365 1.09527 2
      vertex -7.14268 1.35092 2
    endloop
  endfacet
  facet normal -0.637425 -0.770512 0
    outer loop
      vertex -7.14268 1.35092 0
      vertex -6.83365 1.09527 0
      vertex -7.14268 1.35092 2
    endloop
  endfacet
  facet normal -0.809016 -0.587786 0
    outer loop
      vertex -6.59791 0.770806 2
      vertex -6.83365 1.09527 2
      vertex -6.59791 0.770806 0
    endloop
  endfacet
  facet normal -0.809016 -0.587786 0
    outer loop
      vertex -6.59791 0.770806 0
      vertex -6.83365 1.09527 2
      vertex -6.83365 1.09527 0
    endloop
  endfacet
  facet normal -0.929777 -0.368124 0
    outer loop
      vertex -6.45027 0.397904 2
      vertex -6.59791 0.770806 2
      vertex -6.45027 0.397904 0
    endloop
  endfacet
  facet normal -0.929777 -0.368124 0
    outer loop
      vertex -6.45027 0.397904 0
      vertex -6.59791 0.770806 2
      vertex -6.59791 0.770806 0
    endloop
  endfacet
  facet normal -0.992115 -0.125333 0
    outer loop
      vertex -6.4 0 2
      vertex -6.45027 0.397904 2
      vertex -6.4 0 0
    endloop
  endfacet
  facet normal -0.992115 -0.125333 0
    outer loop
      vertex -6.4 0 0
      vertex -6.45027 0.397904 2
      vertex -6.45027 0.397904 0
    endloop
  endfacet
  facet normal -0.992115 0.125333 0
    outer loop
      vertex -6.4 0 2
      vertex -6.4 0 0
      vertex -6.45027 -0.397904 2
    endloop
  endfacet
  facet normal -0.992115 0.125333 0
    outer loop
      vertex -6.45027 -0.397904 2
      vertex -6.4 0 0
      vertex -6.45027 -0.397904 0
    endloop
  endfacet
  facet normal -0.929777 0.368124 0
    outer loop
      vertex -6.45027 -0.397904 2
      vertex -6.45027 -0.397904 0
      vertex -6.59791 -0.770806 2
    endloop
  endfacet
  facet normal -0.929777 0.368124 0
    outer loop
      vertex -6.59791 -0.770806 2
      vertex -6.45027 -0.397904 0
      vertex -6.59791 -0.770806 0
    endloop
  endfacet
  facet normal -0.809016 0.587786 0
    outer loop
      vertex -6.59791 -0.770806 2
      vertex -6.59791 -0.770806 0
      vertex -6.83365 -1.09527 2
    endloop
  endfacet
  facet normal -0.809016 0.587786 0
    outer loop
      vertex -6.83365 -1.09527 2
      vertex -6.59791 -0.770806 0
      vertex -6.83365 -1.09527 0
    endloop
  endfacet
  facet normal -0.637425 0.770512 0
    outer loop
      vertex -6.83365 -1.09527 2
      vertex -6.83365 -1.09527 0
      vertex -7.14268 -1.35092 2
    endloop
  endfacet
  facet normal -0.637425 0.770512 0
    outer loop
      vertex -7.14268 -1.35092 2
      vertex -6.83365 -1.09527 0
      vertex -7.14268 -1.35092 0
    endloop
  endfacet
  facet normal -0.425777 0.904828 0
    outer loop
      vertex -7.14268 -1.35092 2
      vertex -7.14268 -1.35092 0
      vertex -7.50557 -1.52169 2
    endloop
  endfacet
  facet normal -0.425777 0.904828 0
    outer loop
      vertex -7.50557 -1.52169 2
      vertex -7.14268 -1.35092 0
      vertex -7.50557 -1.52169 0
    endloop
  endfacet
  facet normal -0.187383 0.982287 0
    outer loop
      vertex -7.50557 -1.52169 2
      vertex -7.50557 -1.52169 0
      vertex -7.89953 -1.59684 2
    endloop
  endfacet
  facet normal -0.187383 0.982287 0
    outer loop
      vertex -7.89953 -1.59684 2
      vertex -7.50557 -1.52169 0
      vertex -7.89953 -1.59684 0
    endloop
  endfacet
  facet normal 0.0627901 0.998027 0
    outer loop
      vertex -7.89953 -1.59684 2
      vertex -7.89953 -1.59684 0
      vertex -8.29981 -1.57166 2
    endloop
  endfacet
  facet normal 0.0627901 0.998027 0
    outer loop
      vertex -8.29981 -1.57166 2
      vertex -7.89953 -1.59684 0
      vertex -8.29981 -1.57166 0
    endloop
  endfacet
  facet normal 0.309018 0.951056 0
    outer loop
      vertex -8.29981 -1.57166 2
      vertex -8.29981 -1.57166 0
      vertex -8.68125 -1.44772 2
    endloop
  endfacet
  facet normal 0.309018 0.951056 0
    outer loop
      vertex -8.68125 -1.44772 2
      vertex -8.29981 -1.57166 0
      vertex -8.68125 -1.44772 0
    endloop
  endfacet
  facet normal 0.535827 0.844328 0
    outer loop
      vertex -8.68125 -1.44772 2
      vertex -8.68125 -1.44772 0
      vertex -9.01988 -1.23282 2
    endloop
  endfacet
  facet normal 0.535827 0.844328 0
    outer loop
      vertex -9.01988 -1.23282 2
      vertex -8.68125 -1.44772 0
      vertex -9.01988 -1.23282 0
    endloop
  endfacet
  facet normal 0.728969 0.684547 0
    outer loop
      vertex -9.29443 -0.940456 2
      vertex -9.01988 -1.23282 2
      vertex -9.01988 -1.23282 0
    endloop
  endfacet
  facet normal 0.728969 0.684547 0
    outer loop
      vertex -9.29443 -0.940456 0
      vertex -9.29443 -0.940456 2
      vertex -9.01988 -1.23282 0
    endloop
  endfacet
  facet normal 0.876307 0.481753 0
    outer loop
      vertex -9.48764 -0.588999 2
      vertex -9.29443 -0.940456 2
      vertex -9.29443 -0.940456 0
    endloop
  endfacet
  facet normal 0.876307 0.481753 0
    outer loop
      vertex -9.48764 -0.588999 0
      vertex -9.48764 -0.588999 2
      vertex -9.29443 -0.940456 0
    endloop
  endfacet
  facet normal 0.968583 0.248692 0
    outer loop
      vertex -9.58738 -0.200533 2
      vertex -9.48764 -0.588999 2
      vertex -9.48764 -0.588999 0
    endloop
  endfacet
  facet normal 0.968583 0.248692 0
    outer loop
      vertex -9.58738 -0.200533 0
      vertex -9.58738 -0.200533 2
      vertex -9.48764 -0.588999 0
    endloop
  endfacet
  facet normal 0.998027 0.0627911 0
    outer loop
      vertex -4.1 0 2
      vertex -4.06767 -0.513866 2
      vertex -4.06767 -0.513866 0
    endloop
  endfacet
  facet normal 0.998027 0.0627911 0
    outer loop
      vertex -4.1 0 0
      vertex -4.1 0 2
      vertex -4.06767 -0.513866 0
    endloop
  endfacet
  facet normal 0.998027 -0.0627911 0
    outer loop
      vertex -4.06767 0.513866 0
      vertex -4.06767 0.513866 2
      vertex -4.1 0 2
    endloop
  endfacet
  facet normal 0.998027 -0.0627911 0
    outer loop
      vertex -4.1 0 0
      vertex -4.06767 0.513866 0
      vertex -4.1 0 2
    endloop
  endfacet
  facet normal 0.982287 -0.18738 0
    outer loop
      vertex -3.97119 1.01963 0
      vertex -3.97119 1.01963 2
      vertex -4.06767 0.513866 2
    endloop
  endfacet
  facet normal 0.982287 -0.18738 0
    outer loop
      vertex -4.06767 0.513866 0
      vertex -3.97119 1.01963 0
      vertex -4.06767 0.513866 2
    endloop
  endfacet
  facet normal 0.951057 -0.309016 0
    outer loop
      vertex -3.81208 1.50931 0
      vertex -3.81208 1.50931 2
      vertex -3.97119 1.01963 2
    endloop
  endfacet
  facet normal 0.951057 -0.309016 0
    outer loop
      vertex -3.97119 1.01963 0
      vertex -3.81208 1.50931 0
      vertex -3.97119 1.01963 2
    endloop
  endfacet
  facet normal 0.904826 -0.425781 0
    outer loop
      vertex -3.59286 1.97519 0
      vertex -3.59286 1.97519 2
      vertex -3.81208 1.50931 2
    endloop
  endfacet
  facet normal 0.904826 -0.425781 0
    outer loop
      vertex -3.81208 1.50931 0
      vertex -3.59286 1.97519 0
      vertex -3.81208 1.50931 2
    endloop
  endfacet
  facet normal 0.844329 -0.535825 0
    outer loop
      vertex -3.31697 2.40992 0
      vertex -3.31697 2.40992 2
      vertex -3.59286 1.97519 2
    endloop
  endfacet
  facet normal 0.844329 -0.535825 0
    outer loop
      vertex -3.59286 1.97519 0
      vertex -3.31697 2.40992 0
      vertex -3.59286 1.97519 2
    endloop
  endfacet
  facet normal 0.770512 -0.637425 0
    outer loop
      vertex -2.98877 2.80664 0
      vertex -2.98877 2.80664 2
      vertex -3.31697 2.40992 2
    endloop
  endfacet
  facet normal 0.770512 -0.637425 0
    outer loop
      vertex -3.31697 2.40992 0
      vertex -2.98877 2.80664 0
      vertex -3.31697 2.40992 2
    endloop
  endfacet
  facet normal 0.684547 -0.728969 0
    outer loop
      vertex -2.61344 3.1591 0
      vertex -2.61344 3.1591 2
      vertex -2.98877 2.80664 2
    endloop
  endfacet
  facet normal 0.684547 -0.728969 0
    outer loop
      vertex -2.98877 2.80664 0
      vertex -2.61344 3.1591 0
      vertex -2.98877 2.80664 2
    endloop
  endfacet
  facet normal 0.587785 -0.809017 0
    outer loop
      vertex -2.19689 3.46174 0
      vertex -2.19689 3.46174 2
      vertex -2.61344 3.1591 2
    endloop
  endfacet
  facet normal 0.587785 -0.809017 0
    outer loop
      vertex -2.61344 3.1591 0
      vertex -2.19689 3.46174 0
      vertex -2.61344 3.1591 2
    endloop
  endfacet
  facet normal 0.481754 -0.876306 0
    outer loop
      vertex -1.74569 3.70979 0
      vertex -1.74569 3.70979 2
      vertex -2.19689 3.46174 2
    endloop
  endfacet
  facet normal 0.481754 -0.876306 0
    outer loop
      vertex -2.19689 3.46174 0
      vertex -1.74569 3.70979 0
      vertex -2.19689 3.46174 2
    endloop
  endfacet
  facet normal 0.368125 -0.929776 0
    outer loop
      vertex -1.26697 3.89933 0
      vertex -1.26697 3.89933 2
      vertex -1.74569 3.70979 2
    endloop
  endfacet
  facet normal 0.368125 -0.929776 0
    outer loop
      vertex -1.74569 3.70979 0
      vertex -1.26697 3.89933 0
      vertex -1.74569 3.70979 2
    endloop
  endfacet
  facet normal 0.24869 -0.968583 0
    outer loop
      vertex -0.768263 4.02738 0
      vertex -0.768263 4.02738 2
      vertex -1.26697 3.89933 2
    endloop
  endfacet
  facet normal 0.24869 -0.968583 0
    outer loop
      vertex -1.26697 3.89933 0
      vertex -0.768263 4.02738 0
      vertex -1.26697 3.89933 2
    endloop
  endfacet
  facet normal 0.125334 -0.992115 0
    outer loop
      vertex -0.257441 4.09191 0
      vertex -0.257441 4.09191 2
      vertex -0.768263 4.02738 2
    endloop
  endfacet
  facet normal 0.125334 -0.992115 0
    outer loop
      vertex -0.768263 4.02738 0
      vertex -0.257441 4.09191 0
      vertex -0.768263 4.02738 2
    endloop
  endfacet
  facet normal 0 -1 0
    outer loop
      vertex 0.257441 4.09191 0
      vertex 0.257441 4.09191 2
      vertex -0.257441 4.09191 2
    endloop
  endfacet
  facet normal 0 -1 0
    outer loop
      vertex -0.257441 4.09191 0
      vertex 0.257441 4.09191 0
      vertex -0.257441 4.09191 2
    endloop
  endfacet
  facet normal -0.125334 -0.992115 0
    outer loop
      vertex 0.768263 4.02738 0
      vertex 0.768263 4.02738 2
      vertex 0.257441 4.09191 2
    endloop
  endfacet
  facet normal -0.125334 -0.992115 0
    outer loop
      vertex 0.257441 4.09191 0
      vertex 0.768263 4.02738 0
      vertex 0.257441 4.09191 2
    endloop
  endfacet
  facet normal -0.24869 -0.968583 0
    outer loop
      vertex 1.26697 3.89933 0
      vertex 1.26697 3.89933 2
      vertex 0.768263 4.02738 2
    endloop
  endfacet
  facet normal -0.24869 -0.968583 0
    outer loop
      vertex 0.768263 4.02738 0
      vertex 1.26697 3.89933 0
      vertex 0.768263 4.02738 2
    endloop
  endfacet
  facet normal -0.368125 -0.929776 0
    outer loop
      vertex 1.74569 3.70979 0
      vertex 1.74569 3.70979 2
      vertex 1.26697 3.89933 2
    endloop
  endfacet
  facet normal -0.368125 -0.929776 0
    outer loop
      vertex 1.26697 3.89933 0
      vertex 1.74569 3.70979 0
      vertex 1.26697 3.89933 2
    endloop
  endfacet
  facet normal -0.481754 -0.876306 0
    outer loop
      vertex 2.19689 3.46174 0
      vertex 2.19689 3.46174 2
      vertex 1.74569 3.70979 2
    endloop
  endfacet
  facet normal -0.481754 -0.876306 0
    outer loop
      vertex 1.74569 3.70979 0
      vertex 2.19689 3.46174 0
      vertex 1.74569 3.70979 2
    endloop
  endfacet
  facet normal -0.587785 -0.809017 0
    outer loop
      vertex 2.61344 3.1591 0
      vertex 2.61344 3.1591 2
      vertex 2.19689 3.46174 2
    endloop
  endfacet
  facet normal -0.587785 -0.809017 0
    outer loop
      vertex 2.19689 3.46174 0
      vertex 2.61344 3.1591 0
      vertex 2.19689 3.46174 2
    endloop
  endfacet
  facet normal -0.684547 -0.728969 0
    outer loop
      vertex 2.98877 2.80664 0
      vertex 2.98877 2.80664 2
      vertex 2.61344 3.1591 2
    endloop
  endfacet
  facet normal -0.684547 -0.728969 0
    outer loop
      vertex 2.61344 3.1591 0
      vertex 2.98877 2.80664 0
      vertex 2.61344 3.1591 2
    endloop
  endfacet
  facet normal -0.770512 -0.637425 0
    outer loop
      vertex 3.31697 2.40992 2
      vertex 2.98877 2.80664 2
      vertex 3.31697 2.40992 0
    endloop
  endfacet
  facet normal -0.770512 -0.637425 0
    outer loop
      vertex 3.31697 2.40992 0
      vertex 2.98877 2.80664 2
      vertex 2.98877 2.80664 0
    endloop
  endfacet
  facet normal -0.844329 -0.535825 0
    outer loop
      vertex 3.59286 1.97519 2
      vertex 3.31697 2.40992 2
      vertex 3.59286 1.97519 0
    endloop
  endfacet
  facet normal -0.844329 -0.535825 0
    outer loop
      vertex 3.59286 1.97519 0
      vertex 3.31697 2.40992 2
      vertex 3.31697 2.40992 0
    endloop
  endfacet
  facet normal -0.904826 -0.425781 0
    outer loop
      vertex 3.81208 1.50931 2
      vertex 3.59286 1.97519 2
      vertex 3.81208 1.50931 0
    endloop
  endfacet
  facet normal -0.904826 -0.425781 0
    outer loop
      vertex 3.81208 1.50931 0
      vertex 3.59286 1.97519 2
      vertex 3.59286 1.97519 0
    endloop
  endfacet
  facet normal -0.951057 -0.309016 0
    outer loop
      vertex 3.97119 1.01963 2
      vertex 3.81208 1.50931 2
      vertex 3.97119 1.01963 0
    endloop
  endfacet
  facet normal -0.951057 -0.309016 0
    outer loop
      vertex 3.97119 1.01963 0
      vertex 3.81208 1.50931 2
      vertex 3.81208 1.50931 0
    endloop
  endfacet
  facet normal -0.982287 -0.18738 0
    outer loop
      vertex 4.06767 0.513866 2
      vertex 3.97119 1.01963 2
      vertex 4.06767 0.513866 0
    endloop
  endfacet
  facet normal -0.982287 -0.18738 0
    outer loop
      vertex 4.06767 0.513866 0
      vertex 3.97119 1.01963 2
      vertex 3.97119 1.01963 0
    endloop
  endfacet
  facet normal -0.998027 -0.0627911 0
    outer loop
      vertex 4.1 0 2
      vertex 4.06767 0.513866 2
      vertex 4.1 0 0
    endloop
  endfacet
  facet normal -0.998027 -0.0627911 0
    outer loop
      vertex 4.1 0 0
      vertex 4.06767 0.513866 2
      vertex 4.06767 0.513866 0
    endloop
  endfacet
  facet normal -0.998027 0.0627911 0
    outer loop
      vertex 4.1 0 2
      vertex 4.1 0 0
      vertex 4.06767 -0.513866 2
    endloop
  endfacet
  facet normal -0.998027 0.0627911 0
    outer loop
      vertex 4.06767 -0.513866 2
      vertex 4.1 0 0
      vertex 4.06767 -0.513866 0
    endloop
  endfacet
  facet normal -0.982287 0.18738 0
    outer loop
      vertex 4.06767 -0.513866 2
      vertex 4.06767 -0.513866 0
      vertex 3.97119 -1.01963 2
    endloop
  endfacet
  facet normal -0.982287 0.18738 0
    outer loop
      vertex 3.97119 -1.01963 2
      vertex 4.06767 -0.513866 0
      vertex 3.97119 -1.01963 0
    endloop
  endfacet
  facet normal -0.951057 0.309016 0
    outer loop
      vertex 3.97119 -1.01963 2
      vertex 3.97119 -1.01963 0
      vertex 3.81208 -1.50931 2
    endloop
  endfacet
  facet normal -0.951057 0.309016 0
    outer loop
      vertex 3.81208 -1.50931 2
      vertex 3.97119 -1.01963 0
      vertex 3.81208 -1.50931 0
    endloop
  endfacet
  facet normal -0.904826 0.425781 0
    outer loop
      vertex 3.81208 -1.50931 2
      vertex 3.81208 -1.50931 0
      vertex 3.59286 -1.97519 2
    endloop
  endfacet
  facet normal -0.904826 0.425781 0
    outer loop
      vertex 3.59286 -1.97519 2
      vertex 3.81208 -1.50931 0
      vertex 3.59286 -1.97519 0
    endloop
  endfacet
  facet normal -0.844329 0.535825 0
    outer loop
      vertex 3.59286 -1.97519 2
      vertex 3.59286 -1.97519 0
      vertex 3.31697 -2.40992 2
    endloop
  endfacet
  facet normal -0.844329 0.535825 0
    outer loop
      vertex 3.31697 -2.40992 2
      vertex 3.59286 -1.97519 0
      vertex 3.31697 -2.40992 0
    endloop
  endfacet
  facet normal -0.770512 0.637425 0
    outer loop
      vertex 3.31697 -2.40992 2
      vertex 3.31697 -2.40992 0
      vertex 2.98877 -2.80664 2
    endloop
  endfacet
  facet normal -0.770512 0.637425 0
    outer loop
      vertex 2.98877 -2.80664 2
      vertex 3.31697 -2.40992 0
      vertex 2.98877 -2.80664 0
    endloop
  endfacet
  facet normal -0.684547 0.728969 0
    outer loop
      vertex 2.98877 -2.80664 2
      vertex 2.98877 -2.80664 0
      vertex 2.61344 -3.1591 2
    endloop
  endfacet
  facet normal -0.684547 0.728969 0
    outer loop
      vertex 2.61344 -3.1591 2
      vertex 2.98877 -2.80664 0
      vertex 2.61344 -3.1591 0
    endloop
  endfacet
  facet normal -0.587785 0.809017 0
    outer loop
      vertex 2.61344 -3.1591 2
      vertex 2.61344 -3.1591 0
      vertex 2.19689 -3.46174 2
    endloop
  endfacet
  facet normal -0.587785 0.809017 0
    outer loop
      vertex 2.19689 -3.46174 2
      vertex 2.61344 -3.1591 0
      vertex 2.19689 -3.46174 0
    endloop
  endfacet
  facet normal -0.481754 0.876306 0
    outer loop
      vertex 2.19689 -3.46174 2
      vertex 2.19689 -3.46174 0
      vertex 1.74569 -3.70979 2
    endloop
  endfacet
  facet normal -0.481754 0.876306 0
    outer loop
      vertex 1.74569 -3.70979 2
      vertex 2.19689 -3.46174 0
      vertex 1.74569 -3.70979 0
    endloop
  endfacet
  facet normal -0.368125 0.929776 0
    outer loop
      vertex 1.74569 -3.70979 2
      vertex 1.74569 -3.70979 0
      vertex 1.26697 -3.89933 2
    endloop
  endfacet
  facet normal -0.368125 0.929776 0
    outer loop
      vertex 1.26697 -3.89933 2
      vertex 1.74569 -3.70979 0
      vertex 1.26697 -3.89933 0
    endloop
  endfacet
  facet normal -0.24869 0.968583 0
    outer loop
      vertex 1.26697 -3.89933 2
      vertex 1.26697 -3.89933 0
      vertex 0.768263 -4.02738 2
    endloop
  endfacet
  facet normal -0.24869 0.968583 0
    outer loop
      vertex 0.768263 -4.02738 2
      vertex 1.26697 -3.89933 0
      vertex 0.768263 -4.02738 0
    endloop
  endfacet
  facet normal -0.125334 0.992115 0
    outer loop
      vertex 0.768263 -4.02738 2
      vertex 0.768263 -4.02738 0
      vertex 0.257441 -4.09191 2
    endloop
  endfacet
  facet normal -0.125334 0.992115 0
    outer loop
      vertex 0.257441 -4.09191 2
      vertex 0.768263 -4.02738 0
      vertex 0.257441 -4.09191 0
    endloop
  endfacet
  facet normal 0 1 0
    outer loop
      vertex 0.257441 -4.09191 2
      vertex 0.257441 -4.09191 0
      vertex -0.257441 -4.09191 2
    endloop
  endfacet
  facet normal 0 1 0
    outer loop
      vertex -0.257441 -4.09191 2
      vertex 0.257441 -4.09191 0
      vertex -0.257441 -4.09191 0
    endloop
  endfacet
  facet normal 0.125334 0.992115 0
    outer loop
      vertex -0.257441 -4.09191 2
      vertex -0.257441 -4.09191 0
      vertex -0.768263 -4.02738 2
    endloop
  endfacet
  facet normal 0.125334 0.992115 0
    outer loop
      vertex -0.768263 -4.02738 2
      vertex -0.257441 -4.09191 0
      vertex -0.768263 -4.02738 0
    endloop
  endfacet
  facet normal 0.24869 0.968583 0
    outer loop
      vertex -0.768263 -4.02738 2
      vertex -0.768263 -4.02738 0
      vertex -1.26697 -3.89933 2
    endloop
  endfacet
  facet normal 0.24869 0.968583 0
    outer loop
      vertex -1.26697 -3.89933 2
      vertex -0.768263 -4.02738 0
      vertex -1.26697 -3.89933 0
    endloop
  endfacet
  facet normal 0.368125 0.929776 0
    outer loop
      vertex -1.26697 -3.89933 2
      vertex -1.26697 -3.89933 0
      vertex -1.74569 -3.70979 2
    endloop
  endfacet
  facet normal 0.368125 0.929776 0
    outer loop
      vertex -1.74569 -3.70979 2
      vertex -1.26697 -3.89933 0
      vertex -1.74569 -3.70979 0
    endloop
  endfacet
  facet normal 0.481754 0.876306 0
    outer loop
      vertex -1.74569 -3.70979 2
      vertex -1.74569 -3.70979 0
      vertex -2.19689 -3.46174 2
    endloop
  endfacet
  facet normal 0.481754 0.876306 0
    outer loop
      vertex -2.19689 -3.46174 2
      vertex -1.74569 -3.70979 0
      vertex -2.19689 -3.46174 0
    endloop
  endfacet
  facet normal 0.587785 0.809017 0
    outer loop
      vertex -2.19689 -3.46174 2
      vertex -2.19689 -3.46174 0
      vertex -2.61344 -3.1591 2
    endloop
  endfacet
  facet normal 0.587785 0.809017 0
    outer loop
      vertex -2.61344 -3.1591 2
      vertex -2.19689 -3.46174 0
      vertex -2.61344 -3.1591 0
    endloop
  endfacet
  facet normal 0.684547 0.728969 0
    outer loop
      vertex -2.61344 -3.1591 2
      vertex -2.61344 -3.1591 0
      vertex -2.98877 -2.80664 2
    endloop
  endfacet
  facet normal 0.684547 0.728969 0
    outer loop
      vertex -2.98877 -2.80664 2
      vertex -2.61344 -3.1591 0
      vertex -2.98877 -2.80664 0
    endloop
  endfacet
  facet normal 0.770512 0.637425 0
    outer loop
      vertex -3.31697 -2.40992 2
      vertex -2.98877 -2.80664 2
      vertex -2.98877 -2.80664 0
    endloop
  endfacet
  facet normal 0.770512 0.637425 0
    outer loop
      vertex -3.31697 -2.40992 0
      vertex -3.31697 -2.40992 2
      vertex -2.98877 -2.80664 0
    endloop
  endfacet
  facet normal 0.844329 0.535825 0
    outer loop
      vertex -3.59286 -1.97519 2
      vertex -3.31697 -2.40992 2
      vertex -3.31697 -2.40992 0
    endloop
  endfacet
  facet normal 0.844329 0.535825 0
    outer loop
      vertex -3.59286 -1.97519 0
      vertex -3.59286 -1.97519 2
      vertex -3.31697 -2.40992 0
    endloop
  endfacet
  facet normal 0.904826 0.425781 0
    outer loop
      vertex -3.81208 -1.50931 2
      vertex -3.59286 -1.97519 2
      vertex -3.59286 -1.97519 0
    endloop
  endfacet
  facet normal 0.904826 0.425781 0
    outer loop
      vertex -3.81208 -1.50931 0
      vertex -3.81208 -1.50931 2
      vertex -3.59286 -1.97519 0
    endloop
  endfacet
  facet normal 0.951057 0.309016 0
    outer loop
      vertex -3.97119 -1.01963 2
      vertex -3.81208 -1.50931 2
      vertex -3.81208 -1.50931 0
    endloop
  endfacet
  facet normal 0.951057 0.309016 0
    outer loop
      vertex -3.97119 -1.01963 0
      vertex -3.97119 -1.01963 2
      vertex -3.81208 -1.50931 0
    endloop
  endfacet
  facet normal 0.982287 0.18738 0
    outer loop
      vertex -4.06767 -0.513866 2
      vertex -3.97119 -1.01963 2
      vertex -3.97119 -1.01963 0
    endloop
  endfacet
  facet normal 0.982287 0.18738 0
    outer loop
      vertex -4.06767 -0.513866 0
      vertex -4.06767 -0.513866 2
      vertex -3.97119 -1.01963 0
    endloop
  endfacet
  facet normal 1 0 0
    outer loop
      vertex 6.41262 0.200533 0
      vertex 6.41262 0.200533 2
      vertex 6.41262 -0.200533 2
    endloop
  endfacet
  facet normal 1 0 0
    outer loop
      vertex 6.41262 -0.200533 0
      vertex 6.41262 0.200533 0
      vertex 6.41262 -0.200533 2
    endloop
  endfacet
  facet normal 0.968583 -0.248692 0
    outer loop
      vertex 6.51236 0.588999 0
      vertex 6.51236 0.588999 2
      vertex 6.41262 0.200533 2
    endloop
  endfacet
  facet normal 0.968583 -0.248692 0
    outer loop
      vertex 6.41262 0.200533 0
      vertex 6.51236 0.588999 0
      vertex 6.41262 0.200533 2
    endloop
  endfacet
  facet normal 0.876307 -0.481753 0
    outer loop
      vertex 6.70557 0.940456 0
      vertex 6.70557 0.940456 2
      vertex 6.51236 0.588999 2
    endloop
  endfacet
  facet normal 0.876307 -0.481753 0
    outer loop
      vertex 6.51236 0.588999 0
      vertex 6.70557 0.940456 0
      vertex 6.51236 0.588999 2
    endloop
  endfacet
  facet normal 0.728969 -0.684547 0
    outer loop
      vertex 6.98012 1.23282 0
      vertex 6.98012 1.23282 2
      vertex 6.70557 0.940456 2
    endloop
  endfacet
  facet normal 0.728969 -0.684547 0
    outer loop
      vertex 6.70557 0.940456 0
      vertex 6.98012 1.23282 0
      vertex 6.70557 0.940456 2
    endloop
  endfacet
  facet normal 0.535827 -0.844328 0
    outer loop
      vertex 7.31875 1.44772 0
      vertex 7.31875 1.44772 2
      vertex 6.98012 1.23282 2
    endloop
  endfacet
  facet normal 0.535827 -0.844328 0
    outer loop
      vertex 6.98012 1.23282 0
      vertex 7.31875 1.44772 0
      vertex 6.98012 1.23282 2
    endloop
  endfacet
  facet normal 0.309018 -0.951056 0
    outer loop
      vertex 7.70019 1.57166 0
      vertex 7.70019 1.57166 2
      vertex 7.31875 1.44772 2
    endloop
  endfacet
  facet normal 0.309018 -0.951056 0
    outer loop
      vertex 7.31875 1.44772 0
      vertex 7.70019 1.57166 0
      vertex 7.31875 1.44772 2
    endloop
  endfacet
  facet normal 0.0627901 -0.998027 0
    outer loop
      vertex 8.10046 1.59684 0
      vertex 8.10046 1.59684 2
      vertex 7.70019 1.57166 2
    endloop
  endfacet
  facet normal 0.0627901 -0.998027 0
    outer loop
      vertex 7.70019 1.57166 0
      vertex 8.10046 1.59684 0
      vertex 7.70019 1.57166 2
    endloop
  endfacet
  facet normal -0.187383 -0.982287 0
    outer loop
      vertex 8.49443 1.52169 0
      vertex 8.49443 1.52169 2
      vertex 8.10046 1.59684 2
    endloop
  endfacet
  facet normal -0.187383 -0.982287 0
    outer loop
      vertex 8.10046 1.59684 0
      vertex 8.49443 1.52169 0
      vertex 8.10046 1.59684 2
    endloop
  endfacet
  facet normal -0.425777 -0.904828 0
    outer loop
      vertex 8.85732 1.35092 0
      vertex 8.85732 1.35092 2
      vertex 8.49443 1.52169 2
    endloop
  endfacet
  facet normal -0.425777 -0.904828 0
    outer loop
      vertex 8.49443 1.52169 0
      vertex 8.85732 1.35092 0
      vertex 8.49443 1.52169 2
    endloop
  endfacet
  facet normal -0.637425 -0.770512 0
    outer loop
      vertex 9.16635 1.09527 0
      vertex 9.16635 1.09527 2
      vertex 8.85732 1.35092 2
    endloop
  endfacet
  facet normal -0.637425 -0.770512 0
    outer loop
      vertex 8.85732 1.35092 0
      vertex 9.16635 1.09527 0
      vertex 8.85732 1.35092 2
    endloop
  endfacet
  facet normal -0.809016 -0.587786 0
    outer loop
      vertex 9.40209 0.770806 2
      vertex 9.16635 1.09527 2
      vertex 9.40209 0.770806 0
    endloop
  endfacet
  facet normal -0.809016 -0.587786 0
    outer loop
      vertex 9.40209 0.770806 0
      vertex 9.16635 1.09527 2
      vertex 9.16635 1.09527 0
    endloop
  endfacet
  facet normal -0.929777 -0.368124 0
    outer loop
      vertex 9.54973 0.397904 2
      vertex 9.40209 0.770806 2
      vertex 9.54973 0.397904 0
    endloop
  endfacet
  facet normal -0.929777 -0.368124 0
    outer loop
      vertex 9.54973 0.397904 0
      vertex 9.40209 0.770806 2
      vertex 9.40209 0.770806 0
    endloop
  endfacet
  facet normal -0.992115 -0.125333 0
    outer loop
      vertex 9.6 0 2
      vertex 9.54973 0.397904 2
      vertex 9.6 0 0
    endloop
  endfacet
  facet normal -0.992115 -0.125333 0
    outer loop
      vertex 9.6 0 0
      vertex 9.54973 0.397904 2
      vertex 9.54973 0.397904 0
    endloop
  endfacet
  facet normal -0.992115 0.125333 0
    outer loop
      vertex 9.6 0 2
      vertex 9.6 0 0
      vertex 9.54973 -0.397904 2
    endloop
  endfacet
  facet normal -0.992115 0.125333 0
    outer loop
      vertex 9.54973 -0.397904 2
      vertex 9.6 0 0
      vertex 9.54973 -0.397904 0
    endloop
  endfacet
  facet normal -0.929777 0.368124 0
    outer loop
      vertex 9.54973 -0.397904 2
      vertex 9.54973 -0.397904 0
      vertex 9.40209 -0.770806 2
    endloop
  endfacet
  facet normal -0.929777 0.368124 0
    outer loop
      vertex 9.40209 -0.770806 2
      vertex 9.54973 -0.397904 0
      vertex 9.40209 -0.770806 0
    endloop
  endfacet
  facet normal -0.809016 0.587786 0
    outer loop
      vertex 9.40209 -0.770806 2
      vertex 9.40209 -0.770806 0
      vertex 9.16635 -1.09527 2
    endloop
  endfacet
  facet normal -0.809016 0.587786 0
    outer loop
      vertex 9.16635 -1.09527 2
      vertex 9.40209 -0.770806 0
      vertex 9.16635 -1.09527 0
    endloop
  endfacet
  facet normal -0.637425 0.770512 0
    outer loop
      vertex 9.16635 -1.09527 2
      vertex 9.16635 -1.09527 0
      vertex 8.85732 -1.35092 2
    endloop
  endfacet
  facet normal -0.637425 0.770512 0
    outer loop
      vertex 8.85732 -1.35092 2
      vertex 9.16635 -1.09527 0
      vertex 8.85732 -1.35092 0
    endloop
  endfacet
  facet normal -0.425777 0.904828 0
    outer loop
      vertex 8.85732 -1.35092 2
      vertex 8.85732 -1.35092 0
      vertex 8.49443 -1.52169 2
    endloop
  endfacet
  facet normal -0.425777 0.904828 0
    outer loop
      vertex 8.49443 -1.52169 2
      vertex 8.85732 -1.35092 0
      vertex 8.49443 -1.52169 0
    endloop
  endfacet
  facet normal -0.187383 0.982287 0
    outer loop
      vertex 8.49443 -1.52169 2
      vertex 8.49443 -1.52169 0
      vertex 8.10046 -1.59684 2
    endloop
  endfacet
  facet normal -0.187383 0.982287 0
    outer loop
      vertex 8.10046 -1.59684 2
      vertex 8.49443 -1.52169 0
      vertex 8.10046 -1.59684 0
    endloop
  endfacet
  facet normal 0.0627901 0.998027 0
    outer loop
      vertex 8.10046 -1.59684 2
      vertex 8.10046 -1.59684 0
      vertex 7.70019 -1.57166 2
    endloop
  endfacet
  facet normal 0.0627901 0.998027 0
    outer loop
      vertex 7.70019 -1.57166 2
      vertex 8.10046 -1.59684 0
      vertex 7.70019 -1.57166 0
    endloop
  endfacet
  facet normal 0.309018 0.951056 0
    outer loop
      vertex 7.70019 -1.57166 2
      vertex 7.70019 -1.57166 0
      vertex 7.31875 -1.44772 2
    endloop
  endfacet
  facet normal 0.309018 0.951056 0
    outer loop
      vertex 7.31875 -1.44772 2
      vertex 7.70019 -1.57166 0
      vertex 7.31875 -1.44772 0
    endloop
  endfacet
  facet normal 0.535827 0.844328 0
    outer loop
      vertex 7.31875 -1.44772 2
      vertex 7.31875 -1.44772 0
      vertex 6.98012 -1.23282 2
    endloop
  endfacet
  facet normal 0.535827 0.844328 0
    outer loop
      vertex 6.98012 -1.23282 2
      vertex 7.31875 -1.44772 0
      vertex 6.98012 -1.23282 0
    endloop
  endfacet
  facet normal 0.728969 0.684547 0
    outer loop
      vertex 6.70557 -0.940456 2
      vertex 6.98012 -1.23282 2
      vertex 6.98012 -1.23282 0
    endloop
  endfacet
  facet normal 0.728969 0.684547 0
    outer loop
      vertex 6.70557 -0.940456 0
      vertex 6.70557 -0.940456 2
      vertex 6.98012 -1.23282 0
    endloop
  endfacet
  facet normal 0.876307 0.481753 0
    outer loop
      vertex 6.51236 -0.588999 2
      vertex 6.70557 -0.940456 2
      vertex 6.70557 -0.940456 0
    endloop
  endfacet
  facet normal 0.876307 0.481753 0
    outer loop
      vertex 6.51236 -0.588999 0
      vertex 6.51236 -0.588999 2
      vertex 6.70557 -0.940456 0
    endloop
  endfacet
  facet normal 0.968583 0.248692 0
    outer loop
      vertex 6.41262 -0.200533 2
      vertex 6.51236 -0.588999 2
      vertex 6.51236 -0.588999 0
    endloop
  endfacet
  facet normal 0.968583 0.248692 0
    outer loop
      vertex 6.41262 -0.200533 0
      vertex 6.41262 -0.200533 2
      vertex 6.51236 -0.588999 0
    endloop
  endfacet
  facet normal 0 0 1
    outer loop
      vertex -10.7596 2.28703 2
      vertex -11 0 2
      vertex -10.7596 -2.28703 2
    endloop
  endfacet
  facet normal 0 0 1
    outer loop
      vertex -8.89919 -6.46564 2
      vertex -10.7596 2.28703 2
      vertex -10.049 -4.4741 2
    endloop
  endfacet
  facet normal 0 0 1
    outer loop
      vertex -10.049 -4.4741 2
      vertex -10.7596 2.28703 2
      vertex -10.7596 -2.28703 2
    endloop
  endfacet
  facet normal 0 0 1
    outer loop
      vertex -7.36044 -8.17459 2
      vertex -10.7596 2.28703 2
      vertex -8.89919 -6.46564 2
    endloop
  endfacet
  facet normal 0 0 1
    outer loop
      vertex -9.48764 -0.588999 2
      vertex -10.7596 2.28703 2
      vertex -7.36044 -8.17459 2
    endloop
  endfacet
  facet normal 0 0 1
    outer loop
      vertex -8.68125 -1.44772 2
      vertex -9.01988 -1.23282 2
      vertex -3.39919 -10.4616 2
    endloop
  endfacet
  facet normal 0 0 1
    outer loop
      vertex -9.48764 0.588999 2
      vertex -9.29443 0.940456 2
      vertex -10.7596 2.28703 2
    endloop
  endfacet
  facet normal 0 0 1
    outer loop
      vertex -6.83365 1.09527 2
      vertex -6.59791 0.770806 2
      vertex -4.1 0 2
    endloop
  endfacet
  facet normal 0 0 1
    outer loop
      vertex 6.51236 0.588999 2
      vertex 3.81208 1.50931 2
      vertex 3.97119 1.01963 2
    endloop
  endfacet
  facet normal 0 0 1
    outer loop
      vertex -3.59286 1.97519 2
      vertex -3.31697 2.40992 2
      vertex -10.7596 2.28703 2
    endloop
  endfacet
  facet normal 0 0 1
    outer loop
      vertex 2.19689 3.46174 2
      vertex 2.61344 3.1591 2
      vertex 10.049 4.4741 2
    endloop
  endfacet
  facet normal 0 0 1
    outer loop
      vertex 7.36044 8.17459 2
      vertex -10.7596 2.28703 2
      vertex 8.89919 6.46564 2
    endloop
  endfacet
  facet normal 0 0 1
    outer loop
      vertex 5.5 9.52628 2
      vertex -10.7596 2.28703 2
      vertex 7.36044 8.17459 2
    endloop
  endfacet
  facet normal 0 0 1
    outer loop
      vertex 3.39919 10.4616 2
      vertex -10.7596 2.28703 2
      vertex 5.5 9.52628 2
    endloop
  endfacet
  facet normal 0 0 1
    outer loop
      vertex 1.14981 10.9397 2
      vertex -10.7596 2.28703 2
      vertex 3.39919 10.4616 2
    endloop
  endfacet
  facet normal 0 0 1
    outer loop
      vertex -1.14981 10.9397 2
      vertex -10.7596 2.28703 2
      vertex 1.14981 10.9397 2
    endloop
  endfacet
  facet normal 0 0 1
    outer loop
      vertex -3.39919 10.4616 2
      vertex -10.7596 2.28703 2
      vertex -1.14981 10.9397 2
    endloop
  endfacet
  facet normal 0 0 1
    outer loop
      vertex -5.5 9.52628 2
      vertex -10.7596 2.28703 2
      vertex -3.39919 10.4616 2
    endloop
  endfacet
  facet normal 0 0 1
    outer loop
      vertex -7.36044 8.17459 2
      vertex -10.7596 2.28703 2
      vertex -5.5 9.52628 2
    endloop
  endfacet
  facet normal 0 0 1
    outer loop
      vertex -8.89919 6.46564 2
      vertex -10.7596 2.28703 2
      vertex -7.36044 8.17459 2
    endloop
  endfacet
  facet normal 0 0 1
    outer loop
      vertex -10.049 4.4741 2
      vertex -10.7596 2.28703 2
      vertex -8.89919 6.46564 2
    endloop
  endfacet
  facet normal 0 0 1
    outer loop
      vertex -9.58738 0.200533 2
      vertex -10.7596 2.28703 2
      vertex -9.58738 -0.200533 2
    endloop
  endfacet
  facet normal 0 0 1
    outer loop
      vertex -8.29981 -1.57166 2
      vertex -8.68125 -1.44772 2
      vertex -3.39919 -10.4616 2
    endloop
  endfacet
  facet normal 0 0 1
    outer loop
      vertex -7.14268 -1.35092 2
      vertex -7.50557 -1.52169 2
      vertex 1.14981 -10.9397 2
    endloop
  endfacet
  facet normal 0 0 1
    outer loop
      vertex -7.50557 -1.52169 2
      vertex -7.89953 -1.59684 2
      vertex 1.14981 -10.9397 2
    endloop
  endfacet
  facet normal 0 0 1
    outer loop
      vertex 2.19689 -3.46174 2
      vertex 1.74569 -3.70979 2
      vertex 8.89919 -6.46564 2
    endloop
  endfacet
  facet normal 0 0 1
    outer loop
      vertex -6.83365 -1.09527 2
      vertex -7.14268 -1.35092 2
      vertex 3.39919 -10.4616 2
    endloop
  endfacet
  facet normal 0 0 1
    outer loop
      vertex -4.06767 0.513866 2
      vertex -7.14268 1.35092 2
      vertex -6.83365 1.09527 2
    endloop
  endfacet
  facet normal 0 0 1
    outer loop
      vertex -7.89953 1.59684 2
      vertex -10.7596 2.28703 2
      vertex -8.29981 1.57166 2
    endloop
  endfacet
  facet normal 0 0 1
    outer loop
      vertex -7.50557 1.52169 2
      vertex -10.7596 2.28703 2
      vertex -7.89953 1.59684 2
    endloop
  endfacet
  facet normal 0 0 1
    outer loop
      vertex 4.06767 0.513866 2
      vertex 4.1 0 2
      vertex 6.41262 0.200533 2
    endloop
  endfacet
  facet normal 0 0 1
    outer loop
      vertex -4.06767 0.513866 2
      vertex -3.97119 1.01963 2
      vertex -7.50557 1.52169 2
    endloop
  endfacet
  facet normal 0 0 1
    outer loop
      vertex -6.59791 0.770806 2
      vertex -6.45027 0.397904 2
      vertex -4.06767 -0.513866 2
    endloop
  endfacet
  facet normal 0 0 1
    outer loop
      vertex -2.19689 -3.46174 2
      vertex -6.45027 -0.397904 2
      vertex 5.5 -9.52628 2
    endloop
  endfacet
  facet normal 0 0 1
    outer loop
      vertex 5.5 -9.52628 2
      vertex -6.59791 -0.770806 2
      vertex 3.39919 -10.4616 2
    endloop
  endfacet
  facet normal 0 0 1
    outer loop
      vertex -3.31697 -2.40992 2
      vertex -3.59286 -1.97519 2
      vertex -6.45027 -0.397904 2
    endloop
  endfacet
  facet normal 0 0 1
    outer loop
      vertex -6.59791 -0.770806 2
      vertex -6.83365 -1.09527 2
      vertex 3.39919 -10.4616 2
    endloop
  endfacet
  facet normal 0 0 1
    outer loop
      vertex 3.39919 -10.4616 2
      vertex -7.14268 -1.35092 2
      vertex 1.14981 -10.9397 2
    endloop
  endfacet
  facet normal 0 0 1
    outer loop
      vertex -7.89953 -1.59684 2
      vertex -8.29981 -1.57166 2
      vertex -1.14981 -10.9397 2
    endloop
  endfacet
  facet normal 0 0 1
    outer loop
      vertex 1.14981 -10.9397 2
      vertex -7.89953 -1.59684 2
      vertex -1.14981 -10.9397 2
    endloop
  endfacet
  facet normal 0 0 1
    outer loop
      vertex -1.14981 -10.9397 2
      vertex -8.29981 -1.57166 2
      vertex -3.39919 -10.4616 2
    endloop
  endfacet
  facet normal 0 0 1
    outer loop
      vertex -9.01988 -1.23282 2
      vertex -9.29443 -0.940456 2
      vertex -5.5 -9.52628 2
    endloop
  endfacet
  facet normal 0 0 1
    outer loop
      vertex -3.39919 -10.4616 2
      vertex -9.01988 -1.23282 2
      vertex -5.5 -9.52628 2
    endloop
  endfacet
  facet normal 0 0 1
    outer loop
      vertex 0.768263 -4.02738 2
      vertex 0.257441 -4.09191 2
      vertex 7.36044 -8.17459 2
    endloop
  endfacet
  facet normal 0 0 1
    outer loop
      vertex -5.5 -9.52628 2
      vertex -9.48764 -0.588999 2
      vertex -7.36044 -8.17459 2
    endloop
  endfacet
  facet normal 0 0 1
    outer loop
      vertex 4.06767 -0.513866 2
      vertex 3.97119 -1.01963 2
      vertex 7.70019 -1.57166 2
    endloop
  endfacet
  facet normal 0 0 1
    outer loop
      vertex -6.4 0 2
      vertex -6.45027 -0.397904 2
      vertex -3.59286 -1.97519 2
    endloop
  endfacet
  facet normal 0 0 1
    outer loop
      vertex -3.81208 1.50931 2
      vertex -3.59286 1.97519 2
      vertex -10.7596 2.28703 2
    endloop
  endfacet
  facet normal 0 0 1
    outer loop
      vertex 2.61344 -3.1591 2
      vertex 2.19689 -3.46174 2
      vertex 8.89919 -6.46564 2
    endloop
  endfacet
  facet normal 0 0 1
    outer loop
      vertex 3.97119 1.01963 2
      vertex 4.06767 0.513866 2
      vertex 6.51236 0.588999 2
    endloop
  endfacet
  facet normal 0 0 1
    outer loop
      vertex 3.59286 -1.97519 2
      vertex 3.31697 -2.40992 2
      vertex 10.049 -4.4741 2
    endloop
  endfacet
  facet normal 0 0 1
    outer loop
      vertex -3.81208 1.50931 2
      vertex -10.7596 2.28703 2
      vertex -3.97119 1.01963 2
    endloop
  endfacet
  facet normal 0 0 1
    outer loop
      vertex -0.768263 4.02738 2
      vertex -0.257441 4.09191 2
      vertex 8.89919 6.46564 2
    endloop
  endfacet
  facet normal 0 0 1
    outer loop
      vertex 7.70019 -1.57166 2
      vertex 3.97119 -1.01963 2
      vertex 10.7596 -2.28703 2
    endloop
  endfacet
  facet normal 0 0 1
    outer loop
      vertex -2.98877 2.80664 2
      vertex -2.61344 3.1591 2
      vertex -10.7596 2.28703 2
    endloop
  endfacet
  facet normal 0 0 1
    outer loop
      vertex 6.70557 0.940456 2
      vertex 6.98012 1.23282 2
      vertex 3.59286 1.97519 2
    endloop
  endfacet
  facet normal 0 0 1
    outer loop
      vertex -2.98877 2.80664 2
      vertex -10.7596 2.28703 2
      vertex -3.31697 2.40992 2
    endloop
  endfacet
  facet normal 0 0 1
    outer loop
      vertex 3.31697 2.40992 2
      vertex 3.59286 1.97519 2
      vertex 10.7596 2.28703 2
    endloop
  endfacet
  facet normal 0 0 1
    outer loop
      vertex -2.19689 3.46174 2
      vertex -10.7596 2.28703 2
      vertex -2.61344 3.1591 2
    endloop
  endfacet
  facet normal 0 0 1
    outer loop
      vertex -1.74569 3.70979 2
      vertex -10.7596 2.28703 2
      vertex -2.19689 3.46174 2
    endloop
  endfacet
  facet normal 0 0 1
    outer loop
      vertex -1.26697 3.89933 2
      vertex -10.7596 2.28703 2
      vertex -1.74569 3.70979 2
    endloop
  endfacet
  facet normal 0 0 1
    outer loop
      vertex -0.257441 4.09191 2
      vertex 0.257441 4.09191 2
      vertex 8.89919 6.46564 2
    endloop
  endfacet
  facet normal 0 0 1
    outer loop
      vertex -0.768263 4.02738 2
      vertex -10.7596 2.28703 2
      vertex -1.26697 3.89933 2
    endloop
  endfacet
  facet normal 0 0 1
    outer loop
      vertex 1.74569 3.70979 2
      vertex 2.19689 3.46174 2
      vertex 10.049 4.4741 2
    endloop
  endfacet
  facet normal 0 0 1
    outer loop
      vertex 8.89919 6.46564 2
      vertex -10.7596 2.28703 2
      vertex -0.768263 4.02738 2
    endloop
  endfacet
  facet normal 0 0 1
    outer loop
      vertex 0.257441 4.09191 2
      vertex 0.768263 4.02738 2
      vertex 8.89919 6.46564 2
    endloop
  endfacet
  facet normal 0 0 1
    outer loop
      vertex 8.89919 6.46564 2
      vertex 0.768263 4.02738 2
      vertex 10.049 4.4741 2
    endloop
  endfacet
  facet normal 0 0 1
    outer loop
      vertex 0.768263 4.02738 2
      vertex 1.26697 3.89933 2
      vertex 10.049 4.4741 2
    endloop
  endfacet
  facet normal 0 0 1
    outer loop
      vertex 1.26697 3.89933 2
      vertex 1.74569 3.70979 2
      vertex 10.049 4.4741 2
    endloop
  endfacet
  facet normal 0 0 1
    outer loop
      vertex 10.049 4.4741 2
      vertex 2.61344 3.1591 2
      vertex 10.7596 2.28703 2
    endloop
  endfacet
  facet normal 0 0 1
    outer loop
      vertex 2.61344 3.1591 2
      vertex 2.98877 2.80664 2
      vertex 10.7596 2.28703 2
    endloop
  endfacet
  facet normal 0 0 1
    outer loop
      vertex 2.98877 2.80664 2
      vertex 3.31697 2.40992 2
      vertex 10.7596 2.28703 2
    endloop
  endfacet
  facet normal 0 0 1
    outer loop
      vertex 7.70019 1.57166 2
      vertex 8.10046 1.59684 2
      vertex 10.7596 2.28703 2
    endloop
  endfacet
  facet normal 0 0 1
    outer loop
      vertex 8.85732 -1.35092 2
      vertex 8.49443 -1.52169 2
      vertex 10.7596 -2.28703 2
    endloop
  endfacet
  facet normal 0 0 1
    outer loop
      vertex 6.98012 -1.23282 2
      vertex 6.70557 -0.940456 2
      vertex 4.06767 -0.513866 2
    endloop
  endfacet
  facet normal 0 0 1
    outer loop
      vertex 7.31875 -1.44772 2
      vertex 6.98012 -1.23282 2
      vertex 4.06767 -0.513866 2
    endloop
  endfacet
  facet normal 0 0 1
    outer loop
      vertex 10.7596 -2.28703 2
      vertex 3.97119 -1.01963 2
      vertex 10.049 -4.4741 2
    endloop
  endfacet
  facet normal 0 0 1
    outer loop
      vertex 3.97119 -1.01963 2
      vertex 3.81208 -1.50931 2
      vertex 10.049 -4.4741 2
    endloop
  endfacet
  facet normal 0 0 1
    outer loop
      vertex 3.81208 -1.50931 2
      vertex 3.59286 -1.97519 2
      vertex 10.049 -4.4741 2
    endloop
  endfacet
  facet normal 0 0 1
    outer loop
      vertex 10.049 -4.4741 2
      vertex 3.31697 -2.40992 2
      vertex 8.89919 -6.46564 2
    endloop
  endfacet
  facet normal 0 0 1
    outer loop
      vertex -4.1 0 2
      vertex -4.06767 0.513866 2
      vertex -6.83365 1.09527 2
    endloop
  endfacet
  facet normal 0 0 1
    outer loop
      vertex 3.31697 -2.40992 2
      vertex 2.98877 -2.80664 2
      vertex 8.89919 -6.46564 2
    endloop
  endfacet
  facet normal 0 0 1
    outer loop
      vertex -4.06767 0.513866 2
      vertex -7.50557 1.52169 2
      vertex -7.14268 1.35092 2
    endloop
  endfacet
  facet normal 0 0 1
    outer loop
      vertex 2.98877 -2.80664 2
      vertex 2.61344 -3.1591 2
      vertex 8.89919 -6.46564 2
    endloop
  endfacet
  facet normal 0 0 1
    outer loop
      vertex -7.50557 1.52169 2
      vertex -3.97119 1.01963 2
      vertex -10.7596 2.28703 2
    endloop
  endfacet
  facet normal 0 0 1
    outer loop
      vertex -6.45027 0.397904 2
      vertex -6.4 0 2
      vertex -3.97119 -1.01963 2
    endloop
  endfacet
  facet normal 0 0 1
    outer loop
      vertex 8.89919 -6.46564 2
      vertex 1.74569 -3.70979 2
      vertex 7.36044 -8.17459 2
    endloop
  endfacet
  facet normal 0 0 1
    outer loop
      vertex 1.74569 -3.70979 2
      vertex 1.26697 -3.89933 2
      vertex 7.36044 -8.17459 2
    endloop
  endfacet
  facet normal 0 0 1
    outer loop
      vertex 6.41262 -0.200533 2
      vertex 6.41262 0.200533 2
      vertex 4.1 0 2
    endloop
  endfacet
  facet normal 0 0 1
    outer loop
      vertex 1.26697 -3.89933 2
      vertex 0.768263 -4.02738 2
      vertex 7.36044 -8.17459 2
    endloop
  endfacet
  facet normal 0 0 1
    outer loop
      vertex 6.51236 0.588999 2
      vertex 6.70557 0.940456 2
      vertex 3.81208 1.50931 2
    endloop
  endfacet
  facet normal 0 0 1
    outer loop
      vertex -3.97119 -1.01963 2
      vertex -4.06767 -0.513866 2
      vertex -6.45027 0.397904 2
    endloop
  endfacet
  facet normal 0 0 1
    outer loop
      vertex -4.06767 -0.513866 2
      vertex -4.1 0 2
      vertex -6.59791 0.770806 2
    endloop
  endfacet
  facet normal 0 0 1
    outer loop
      vertex 7.36044 -8.17459 2
      vertex -0.257441 -4.09191 2
      vertex 5.5 -9.52628 2
    endloop
  endfacet
  facet normal 0 0 1
    outer loop
      vertex -0.257441 -4.09191 2
      vertex -0.768263 -4.02738 2
      vertex 5.5 -9.52628 2
    endloop
  endfacet
  facet normal 0 0 1
    outer loop
      vertex -3.59286 -1.97519 2
      vertex -3.81208 -1.50931 2
      vertex -6.4 0 2
    endloop
  endfacet
  facet normal 0 0 1
    outer loop
      vertex -0.768263 -4.02738 2
      vertex -1.26697 -3.89933 2
      vertex 5.5 -9.52628 2
    endloop
  endfacet
  facet normal 0 0 1
    outer loop
      vertex -1.26697 -3.89933 2
      vertex -1.74569 -3.70979 2
      vertex 5.5 -9.52628 2
    endloop
  endfacet
  facet normal 0 0 1
    outer loop
      vertex -1.74569 -3.70979 2
      vertex -2.19689 -3.46174 2
      vertex 5.5 -9.52628 2
    endloop
  endfacet
  facet normal 0 0 1
    outer loop
      vertex -2.61344 -3.1591 2
      vertex -6.45027 -0.397904 2
      vertex -2.19689 -3.46174 2
    endloop
  endfacet
  facet normal 0 0 1
    outer loop
      vertex -2.98877 -2.80664 2
      vertex -3.31697 -2.40992 2
      vertex -6.45027 -0.397904 2
    endloop
  endfacet
  facet normal 0 0 1
    outer loop
      vertex -2.61344 -3.1591 2
      vertex -2.98877 -2.80664 2
      vertex -6.45027 -0.397904 2
    endloop
  endfacet
  facet normal 0 0 1
    outer loop
      vertex -6.45027 -0.397904 2
      vertex -6.59791 -0.770806 2
      vertex 5.5 -9.52628 2
    endloop
  endfacet
  facet normal 0 0 1
    outer loop
      vertex 0.257441 -4.09191 2
      vertex -0.257441 -4.09191 2
      vertex 7.36044 -8.17459 2
    endloop
  endfacet
  facet normal 0 0 1
    outer loop
      vertex 9.54973 0.397904 2
      vertex 9.6 0 2
      vertex 11 0 2
    endloop
  endfacet
  facet normal 0 0 1
    outer loop
      vertex -8.68125 1.44772 2
      vertex -8.29981 1.57166 2
      vertex -10.7596 2.28703 2
    endloop
  endfacet
  facet normal 0 0 1
    outer loop
      vertex 9.6 0 2
      vertex 9.54973 -0.397904 2
      vertex 11 0 2
    endloop
  endfacet
  facet normal 0 0 1
    outer loop
      vertex 4.06767 -0.513866 2
      vertex 7.70019 -1.57166 2
      vertex 7.31875 -1.44772 2
    endloop
  endfacet
  facet normal 0 0 1
    outer loop
      vertex 3.59286 1.97519 2
      vertex 3.81208 1.50931 2
      vertex 6.70557 0.940456 2
    endloop
  endfacet
  facet normal 0 0 1
    outer loop
      vertex 7.31875 1.44772 2
      vertex 3.59286 1.97519 2
      vertex 6.98012 1.23282 2
    endloop
  endfacet
  facet normal 0 0 1
    outer loop
      vertex 7.70019 1.57166 2
      vertex 3.59286 1.97519 2
      vertex 7.31875 1.44772 2
    endloop
  endfacet
  facet normal 0 0 1
    outer loop
      vertex 8.10046 1.59684 2
      vertex 8.49443 1.52169 2
      vertex 10.7596 2.28703 2
    endloop
  endfacet
  facet normal 0 0 1
    outer loop
      vertex 10.7596 2.28703 2
      vertex 3.59286 1.97519 2
      vertex 7.70019 1.57166 2
    endloop
  endfacet
  facet normal 0 0 1
    outer loop
      vertex 8.85732 1.35092 2
      vertex 9.16635 1.09527 2
      vertex 11 0 2
    endloop
  endfacet
  facet normal 0 0 1
    outer loop
      vertex 9.40209 0.770806 2
      vertex 9.54973 0.397904 2
      vertex 11 0 2
    endloop
  endfacet
  facet normal 0 0 1
    outer loop
      vertex 10.7596 2.28703 2
      vertex 8.85732 1.35092 2
      vertex 11 0 2
    endloop
  endfacet
  facet normal 0 0 1
    outer loop
      vertex 10.7596 2.28703 2
      vertex 8.49443 1.52169 2
      vertex 8.85732 1.35092 2
    endloop
  endfacet
  facet normal 0 0 1
    outer loop
      vertex 9.16635 1.09527 2
      vertex 9.40209 0.770806 2
      vertex 11 0 2
    endloop
  endfacet
  facet normal 0 0 1
    outer loop
      vertex 6.41262 0.200533 2
      vertex 6.51236 0.588999 2
      vertex 4.06767 0.513866 2
    endloop
  endfacet
  facet normal 0 0 1
    outer loop
      vertex 11 0 2
      vertex 9.54973 -0.397904 2
      vertex 10.7596 -2.28703 2
    endloop
  endfacet
  facet normal 0 0 1
    outer loop
      vertex 9.54973 -0.397904 2
      vertex 9.40209 -0.770806 2
      vertex 10.7596 -2.28703 2
    endloop
  endfacet
  facet normal 0 0 1
    outer loop
      vertex 9.40209 -0.770806 2
      vertex 9.16635 -1.09527 2
      vertex 10.7596 -2.28703 2
    endloop
  endfacet
  facet normal 0 0 1
    outer loop
      vertex 9.16635 -1.09527 2
      vertex 8.85732 -1.35092 2
      vertex 10.7596 -2.28703 2
    endloop
  endfacet
  facet normal 0 0 1
    outer loop
      vertex 8.10046 -1.59684 2
      vertex 7.70019 -1.57166 2
      vertex 10.7596 -2.28703 2
    endloop
  endfacet
  facet normal 0 0 1
    outer loop
      vertex -3.81208 -1.50931 2
      vertex -3.97119 -1.01963 2
      vertex -6.4 0 2
    endloop
  endfacet
  facet normal 0 0 1
    outer loop
      vertex 6.70557 -0.940456 2
      vertex 6.51236 -0.588999 2
      vertex 4.1 0 2
    endloop
  endfacet
  facet normal 0 0 1
    outer loop
      vertex 4.1 0 2
      vertex 4.06767 -0.513866 2
      vertex 6.70557 -0.940456 2
    endloop
  endfacet
  facet normal 0 0 1
    outer loop
      vertex 8.49443 -1.52169 2
      vertex 8.10046 -1.59684 2
      vertex 10.7596 -2.28703 2
    endloop
  endfacet
  facet normal 0 0 1
    outer loop
      vertex 6.41262 -0.200533 2
      vertex 4.1 0 2
      vertex 6.51236 -0.588999 2
    endloop
  endfacet
  facet normal 0 0 1
    outer loop
      vertex -9.29443 -0.940456 2
      vertex -9.48764 -0.588999 2
      vertex -5.5 -9.52628 2
    endloop
  endfacet
  facet normal 0 0 1
    outer loop
      vertex -9.48764 -0.588999 2
      vertex -9.58738 -0.200533 2
      vertex -10.7596 2.28703 2
    endloop
  endfacet
  facet normal 0 0 1
    outer loop
      vertex -9.58738 0.200533 2
      vertex -9.48764 0.588999 2
      vertex -10.7596 2.28703 2
    endloop
  endfacet
  facet normal 0 0 1
    outer loop
      vertex -9.29443 0.940456 2
      vertex -9.01988 1.23282 2
      vertex -10.7596 2.28703 2
    endloop
  endfacet
  facet normal 0 0 1
    outer loop
      vertex -9.01988 1.23282 2
      vertex -8.68125 1.44772 2
      vertex -10.7596 2.28703 2
    endloop
  endfacet
endsolid OpenSCAD_Model
